<mxfile host="65bd71144e" pages="4">
    <diagram id="0-UqgqaBEQwOuBsITXrP" name="Composite">
        <mxGraphModel dx="2532" dy="1598" grid="1" gridSize="10" guides="1" tooltips="1" connect="1" arrows="1" fold="1" page="0" pageScale="1" pageWidth="850" pageHeight="1100" math="0" shadow="0">
            <root>
                <mxCell id="cO7851tfKmzUKqTeVgMp-0"/>
                <mxCell id="cO7851tfKmzUKqTeVgMp-1" parent="cO7851tfKmzUKqTeVgMp-0"/>
                <mxCell id="cO7851tfKmzUKqTeVgMp-2" value="Component" style="swimlane;fontStyle=1;align=center;verticalAlign=top;childLayout=stackLayout;horizontal=1;startSize=26;horizontalStack=0;resizeParent=1;resizeParentMax=0;resizeLast=0;collapsible=1;marginBottom=0;" parent="cO7851tfKmzUKqTeVgMp-1" vertex="1">
                    <mxGeometry x="130" y="220" width="160" height="52" as="geometry"/>
                </mxCell>
                <mxCell id="cO7851tfKmzUKqTeVgMp-5" value="+ Operation(): any" style="text;strokeColor=none;fillColor=none;align=left;verticalAlign=top;spacingLeft=4;spacingRight=4;overflow=hidden;rotatable=0;points=[[0,0.5],[1,0.5]];portConstraint=eastwest;" parent="cO7851tfKmzUKqTeVgMp-2" vertex="1">
                    <mxGeometry y="26" width="160" height="26" as="geometry"/>
                </mxCell>
                <mxCell id="cO7851tfKmzUKqTeVgMp-6" value="Composite" style="swimlane;fontStyle=1;align=center;verticalAlign=top;childLayout=stackLayout;horizontal=1;startSize=26;horizontalStack=0;resizeParent=1;resizeParentMax=0;resizeLast=0;collapsible=1;marginBottom=0;" parent="cO7851tfKmzUKqTeVgMp-1" vertex="1">
                    <mxGeometry x="330" y="220" width="160" height="86" as="geometry"/>
                </mxCell>
                <mxCell id="cO7851tfKmzUKqTeVgMp-7" value="+ children: IComponent[]" style="text;strokeColor=none;fillColor=none;align=left;verticalAlign=top;spacingLeft=4;spacingRight=4;overflow=hidden;rotatable=0;points=[[0,0.5],[1,0.5]];portConstraint=eastwest;" parent="cO7851tfKmzUKqTeVgMp-6" vertex="1">
                    <mxGeometry y="26" width="160" height="26" as="geometry"/>
                </mxCell>
                <mxCell id="cO7851tfKmzUKqTeVgMp-8" value="" style="line;strokeWidth=1;fillColor=none;align=left;verticalAlign=middle;spacingTop=-1;spacingLeft=3;spacingRight=3;rotatable=0;labelPosition=right;points=[];portConstraint=eastwest;" parent="cO7851tfKmzUKqTeVgMp-6" vertex="1">
                    <mxGeometry y="52" width="160" height="8" as="geometry"/>
                </mxCell>
                <mxCell id="cO7851tfKmzUKqTeVgMp-9" value="+ Operation(): any" style="text;strokeColor=none;fillColor=none;align=left;verticalAlign=top;spacingLeft=4;spacingRight=4;overflow=hidden;rotatable=0;points=[[0,0.5],[1,0.5]];portConstraint=eastwest;" parent="cO7851tfKmzUKqTeVgMp-6" vertex="1">
                    <mxGeometry y="60" width="160" height="26" as="geometry"/>
                </mxCell>
                <mxCell id="cO7851tfKmzUKqTeVgMp-10" value="&lt;p style=&quot;margin: 0px ; margin-top: 4px ; text-align: center&quot;&gt;&lt;i&gt;&amp;lt;&amp;lt;Interface&amp;gt;&amp;gt;&lt;/i&gt;&lt;br&gt;&lt;b&gt;IComponent&lt;/b&gt;&lt;/p&gt;&lt;hr size=&quot;1&quot;&gt;&lt;p style=&quot;margin: 0px ; margin-left: 4px&quot;&gt;&lt;/p&gt;&lt;p style=&quot;margin: 0px ; margin-left: 4px&quot;&gt;+ Operation(): any&lt;br&gt;&lt;/p&gt;" style="verticalAlign=top;align=left;overflow=fill;fontSize=12;fontFamily=Helvetica;html=1;" parent="cO7851tfKmzUKqTeVgMp-1" vertex="1">
                    <mxGeometry x="220" y="70" width="190" height="70" as="geometry"/>
                </mxCell>
                <mxCell id="cO7851tfKmzUKqTeVgMp-12" value="" style="endArrow=diamondThin;endFill=0;endSize=14;html=1;entryX=0.75;entryY=0;entryDx=0;entryDy=0;exitX=1;exitY=0.5;exitDx=0;exitDy=0;edgeStyle=orthogonalEdgeStyle;rounded=0;" parent="cO7851tfKmzUKqTeVgMp-1" source="cO7851tfKmzUKqTeVgMp-10" target="cO7851tfKmzUKqTeVgMp-6" edge="1">
                    <mxGeometry width="160" relative="1" as="geometry">
                        <mxPoint x="250" y="390" as="sourcePoint"/>
                        <mxPoint x="410" y="390" as="targetPoint"/>
                    </mxGeometry>
                </mxCell>
                <mxCell id="cO7851tfKmzUKqTeVgMp-13" value="" style="endArrow=block;dashed=1;endFill=0;endSize=12;html=1;edgeStyle=elbowEdgeStyle;elbow=vertical;rounded=0;" parent="cO7851tfKmzUKqTeVgMp-1" source="cO7851tfKmzUKqTeVgMp-2" target="cO7851tfKmzUKqTeVgMp-10" edge="1">
                    <mxGeometry width="160" relative="1" as="geometry">
                        <mxPoint x="20" y="160" as="sourcePoint"/>
                        <mxPoint x="180" y="160" as="targetPoint"/>
                        <Array as="points">
                            <mxPoint x="315" y="180"/>
                        </Array>
                    </mxGeometry>
                </mxCell>
                <mxCell id="cO7851tfKmzUKqTeVgMp-14" value="" style="endArrow=block;dashed=1;endFill=0;endSize=12;html=1;rounded=0;edgeStyle=elbowEdgeStyle;elbow=vertical;" parent="cO7851tfKmzUKqTeVgMp-1" source="cO7851tfKmzUKqTeVgMp-6" target="cO7851tfKmzUKqTeVgMp-10" edge="1">
                    <mxGeometry width="160" relative="1" as="geometry">
                        <mxPoint x="370" y="240" as="sourcePoint"/>
                        <mxPoint x="530" y="240" as="targetPoint"/>
                    </mxGeometry>
                </mxCell>
                <mxCell id="cO7851tfKmzUKqTeVgMp-16" style="rounded=0;elbow=vertical;html=1;jettySize=auto;orthogonalLoop=1;dashed=1;endArrow=none;endFill=0;entryX=1;entryY=0.5;" parent="cO7851tfKmzUKqTeVgMp-1" source="cO7851tfKmzUKqTeVgMp-15" target="cO7851tfKmzUKqTeVgMp-9" edge="1">
                    <mxGeometry relative="1" as="geometry">
                        <Array as="points">
                            <mxPoint x="530" y="250"/>
                        </Array>
                    </mxGeometry>
                </mxCell>
                <mxCell id="cO7851tfKmzUKqTeVgMp-15" value="Calls the Operation() method of each of its children." style="shape=note;whiteSpace=wrap;html=1;size=14;verticalAlign=middle;align=center;spacingTop=-6;" parent="cO7851tfKmzUKqTeVgMp-1" vertex="1">
                    <mxGeometry x="460" y="120" width="140" height="60" as="geometry"/>
                </mxCell>
                <mxCell id="cO7851tfKmzUKqTeVgMp-22" value="Client" style="html=1;" parent="cO7851tfKmzUKqTeVgMp-1" vertex="1">
                    <mxGeometry x="60" y="80" width="110" height="50" as="geometry"/>
                </mxCell>
                <mxCell id="QtepYypDEjkJIkkWE-sW-0" value="" style="endArrow=classic;html=1;" parent="cO7851tfKmzUKqTeVgMp-1" source="cO7851tfKmzUKqTeVgMp-22" target="cO7851tfKmzUKqTeVgMp-10" edge="1">
                    <mxGeometry width="50" height="50" relative="1" as="geometry">
                        <mxPoint x="-130" y="240" as="sourcePoint"/>
                        <mxPoint x="-80" y="190" as="targetPoint"/>
                    </mxGeometry>
                </mxCell>
                <mxCell id="wSCpoRAWZqlnTNplowZO-0" value="Book Store Design" style="text;html=1;align=center;verticalAlign=middle;resizable=0;points=[];autosize=1;strokeColor=none;fillColor=none;" parent="cO7851tfKmzUKqTeVgMp-1" vertex="1">
                    <mxGeometry x="-10" y="420" width="120" height="30" as="geometry"/>
                </mxCell>
                <mxCell id="wSCpoRAWZqlnTNplowZO-1" style="edgeStyle=none;html=1;endArrow=open;endFill=0;endSize=12;" parent="cO7851tfKmzUKqTeVgMp-1" source="wSCpoRAWZqlnTNplowZO-3" target="wSCpoRAWZqlnTNplowZO-6" edge="1">
                    <mxGeometry relative="1" as="geometry"/>
                </mxCell>
                <mxCell id="wSCpoRAWZqlnTNplowZO-2" value="Uses" style="edgeLabel;html=1;align=center;verticalAlign=middle;resizable=0;points=[];" parent="wSCpoRAWZqlnTNplowZO-1" vertex="1" connectable="0">
                    <mxGeometry x="-0.325" y="1" relative="1" as="geometry">
                        <mxPoint x="13" y="1" as="offset"/>
                    </mxGeometry>
                </mxCell>
                <mxCell id="wSCpoRAWZqlnTNplowZO-3" value="Program" style="rounded=0;whiteSpace=wrap;html=1;" parent="cO7851tfKmzUKqTeVgMp-1" vertex="1">
                    <mxGeometry x="60" y="600" width="120" height="40" as="geometry"/>
                </mxCell>
                <mxCell id="wSCpoRAWZqlnTNplowZO-4" style="edgeStyle=none;html=1;endArrow=open;endFill=0;endSize=12;" parent="cO7851tfKmzUKqTeVgMp-1" source="wSCpoRAWZqlnTNplowZO-23" target="wSCpoRAWZqlnTNplowZO-9" edge="1">
                    <mxGeometry relative="1" as="geometry"/>
                </mxCell>
                <mxCell id="wSCpoRAWZqlnTNplowZO-5" value="Creates" style="edgeLabel;html=1;align=center;verticalAlign=middle;resizable=0;points=[];" parent="wSCpoRAWZqlnTNplowZO-4" vertex="1" connectable="0">
                    <mxGeometry x="-0.38" y="-2" relative="1" as="geometry">
                        <mxPoint x="15" y="-2" as="offset"/>
                    </mxGeometry>
                </mxCell>
                <mxCell id="wSCpoRAWZqlnTNplowZO-6" value="&lt;i&gt;&amp;lt;&amp;lt; interface &amp;gt;&amp;gt;&lt;/i&gt;&lt;br&gt;ICorporationFactory" style="rounded=0;whiteSpace=wrap;html=1;" parent="cO7851tfKmzUKqTeVgMp-1" vertex="1">
                    <mxGeometry x="260" y="600" width="160" height="40" as="geometry"/>
                </mxCell>
                <mxCell id="wSCpoRAWZqlnTNplowZO-7" value="&lt;i&gt;&amp;lt;&amp;lt; interface &amp;gt;&amp;gt;&lt;/i&gt;&lt;br&gt;IComponent" style="rounded=0;whiteSpace=wrap;html=1;" parent="cO7851tfKmzUKqTeVgMp-1" vertex="1">
                    <mxGeometry x="500" y="560" width="120" height="40" as="geometry"/>
                </mxCell>
                <mxCell id="wSCpoRAWZqlnTNplowZO-8" style="edgeStyle=none;html=1;endArrow=block;endFill=0;endSize=12;" parent="cO7851tfKmzUKqTeVgMp-1" source="wSCpoRAWZqlnTNplowZO-9" target="wSCpoRAWZqlnTNplowZO-11" edge="1">
                    <mxGeometry relative="1" as="geometry"/>
                </mxCell>
                <mxCell id="wSCpoRAWZqlnTNplowZO-9" value="Corporation" style="rounded=0;whiteSpace=wrap;html=1;" parent="cO7851tfKmzUKqTeVgMp-1" vertex="1">
                    <mxGeometry x="500" y="720" width="120" height="40" as="geometry"/>
                </mxCell>
                <mxCell id="wSCpoRAWZqlnTNplowZO-10" style="edgeStyle=none;html=1;endArrow=block;endFill=0;endSize=12;dashed=1;" parent="cO7851tfKmzUKqTeVgMp-1" source="wSCpoRAWZqlnTNplowZO-11" target="wSCpoRAWZqlnTNplowZO-7" edge="1">
                    <mxGeometry relative="1" as="geometry"/>
                </mxCell>
                <mxCell id="wSCpoRAWZqlnTNplowZO-11" value="BookComposite" style="rounded=0;whiteSpace=wrap;html=1;fontStyle=2" parent="cO7851tfKmzUKqTeVgMp-1" vertex="1">
                    <mxGeometry x="500" y="640" width="120" height="40" as="geometry"/>
                </mxCell>
                <mxCell id="wSCpoRAWZqlnTNplowZO-12" style="edgeStyle=elbowEdgeStyle;html=1;dashed=1;endArrow=block;endFill=0;endSize=12;elbow=vertical;rounded=0;" parent="cO7851tfKmzUKqTeVgMp-1" source="wSCpoRAWZqlnTNplowZO-13" target="wSCpoRAWZqlnTNplowZO-25" edge="1">
                    <mxGeometry relative="1" as="geometry"/>
                </mxCell>
                <mxCell id="wSCpoRAWZqlnTNplowZO-13" value="Book" style="rounded=0;whiteSpace=wrap;html=1;" parent="cO7851tfKmzUKqTeVgMp-1" vertex="1">
                    <mxGeometry x="920" y="600" width="120" height="40" as="geometry"/>
                </mxCell>
                <mxCell id="wSCpoRAWZqlnTNplowZO-14" style="edgeStyle=elbowEdgeStyle;html=1;endArrow=block;endFill=0;endSize=12;elbow=vertical;rounded=0;" parent="cO7851tfKmzUKqTeVgMp-1" source="wSCpoRAWZqlnTNplowZO-15" target="wSCpoRAWZqlnTNplowZO-24" edge="1">
                    <mxGeometry relative="1" as="geometry"/>
                </mxCell>
                <mxCell id="wSCpoRAWZqlnTNplowZO-15" value="Section" style="rounded=0;whiteSpace=wrap;html=1;" parent="cO7851tfKmzUKqTeVgMp-1" vertex="1">
                    <mxGeometry x="920" y="680" width="120" height="40" as="geometry"/>
                </mxCell>
                <mxCell id="wSCpoRAWZqlnTNplowZO-16" style="edgeStyle=elbowEdgeStyle;html=1;endArrow=block;endFill=0;endSize=12;elbow=vertical;rounded=0;" parent="cO7851tfKmzUKqTeVgMp-1" source="wSCpoRAWZqlnTNplowZO-17" target="wSCpoRAWZqlnTNplowZO-24" edge="1">
                    <mxGeometry relative="1" as="geometry"/>
                </mxCell>
                <mxCell id="wSCpoRAWZqlnTNplowZO-17" value="Set" style="rounded=0;whiteSpace=wrap;html=1;" parent="cO7851tfKmzUKqTeVgMp-1" vertex="1">
                    <mxGeometry x="760" y="680" width="120" height="40" as="geometry"/>
                </mxCell>
                <mxCell id="wSCpoRAWZqlnTNplowZO-18" style="edgeStyle=elbowEdgeStyle;html=1;endArrow=block;endFill=0;endSize=12;elbow=vertical;rounded=0;" parent="cO7851tfKmzUKqTeVgMp-1" source="wSCpoRAWZqlnTNplowZO-19" target="wSCpoRAWZqlnTNplowZO-24" edge="1">
                    <mxGeometry relative="1" as="geometry"/>
                </mxCell>
                <mxCell id="wSCpoRAWZqlnTNplowZO-19" value="Store" style="rounded=0;whiteSpace=wrap;html=1;" parent="cO7851tfKmzUKqTeVgMp-1" vertex="1">
                    <mxGeometry x="1080" y="680" width="120" height="40" as="geometry"/>
                </mxCell>
                <mxCell id="wSCpoRAWZqlnTNplowZO-20" style="edgeStyle=none;html=1;endArrow=block;endFill=0;endSize=12;" parent="cO7851tfKmzUKqTeVgMp-1" source="wSCpoRAWZqlnTNplowZO-23" target="wSCpoRAWZqlnTNplowZO-6" edge="1">
                    <mxGeometry relative="1" as="geometry"/>
                </mxCell>
                <mxCell id="wSCpoRAWZqlnTNplowZO-21" style="edgeStyle=orthogonalEdgeStyle;html=1;dashed=1;endArrow=open;endFill=0;endSize=12;" parent="cO7851tfKmzUKqTeVgMp-1" source="wSCpoRAWZqlnTNplowZO-23" target="wSCpoRAWZqlnTNplowZO-3" edge="1">
                    <mxGeometry relative="1" as="geometry"/>
                </mxCell>
                <mxCell id="wSCpoRAWZqlnTNplowZO-22" value="Injected into" style="edgeLabel;html=1;align=center;verticalAlign=middle;resizable=0;points=[];" parent="wSCpoRAWZqlnTNplowZO-21" vertex="1" connectable="0">
                    <mxGeometry x="0.1333" y="-3" relative="1" as="geometry">
                        <mxPoint x="76" y="3" as="offset"/>
                    </mxGeometry>
                </mxCell>
                <mxCell id="wSCpoRAWZqlnTNplowZO-23" value="DefaultCorporationFactory" style="rounded=0;whiteSpace=wrap;html=1;" parent="cO7851tfKmzUKqTeVgMp-1" vertex="1">
                    <mxGeometry x="260" y="720" width="160" height="40" as="geometry"/>
                </mxCell>
                <mxCell id="wSCpoRAWZqlnTNplowZO-24" value="BookComposite" style="rounded=0;whiteSpace=wrap;html=1;fontStyle=2" parent="cO7851tfKmzUKqTeVgMp-1" vertex="1">
                    <mxGeometry x="760" y="600" width="120" height="40" as="geometry"/>
                </mxCell>
                <mxCell id="wSCpoRAWZqlnTNplowZO-25" value="&lt;i&gt;&amp;lt;&amp;lt; interface &amp;gt;&amp;gt;&lt;/i&gt;&lt;br&gt;IComponent" style="rounded=0;whiteSpace=wrap;html=1;" parent="cO7851tfKmzUKqTeVgMp-1" vertex="1">
                    <mxGeometry x="760" y="510" width="120" height="40" as="geometry"/>
                </mxCell>
                <mxCell id="wSCpoRAWZqlnTNplowZO-26" style="edgeStyle=none;html=1;endArrow=block;endFill=0;endSize=12;dashed=1;" parent="cO7851tfKmzUKqTeVgMp-1" source="wSCpoRAWZqlnTNplowZO-24" target="wSCpoRAWZqlnTNplowZO-25" edge="1">
                    <mxGeometry relative="1" as="geometry">
                        <mxPoint x="820" y="600" as="sourcePoint"/>
                    </mxGeometry>
                </mxCell>
                <mxCell id="wSCpoRAWZqlnTNplowZO-27" style="edgeStyle=elbowEdgeStyle;rounded=0;elbow=vertical;html=1;endArrow=block;endFill=0;endSize=12;" parent="cO7851tfKmzUKqTeVgMp-1" source="wSCpoRAWZqlnTNplowZO-28" target="wSCpoRAWZqlnTNplowZO-24" edge="1">
                    <mxGeometry relative="1" as="geometry"/>
                </mxCell>
                <mxCell id="wSCpoRAWZqlnTNplowZO-28" value="Corporation" style="rounded=0;whiteSpace=wrap;html=1;" parent="cO7851tfKmzUKqTeVgMp-1" vertex="1">
                    <mxGeometry x="1240" y="680" width="120" height="40" as="geometry"/>
                </mxCell>
                <mxCell id="wSCpoRAWZqlnTNplowZO-29" value="Book Store Design - Composite class hierarchy" style="text;html=1;align=center;verticalAlign=middle;resizable=0;points=[];autosize=1;strokeColor=none;fillColor=none;" parent="cO7851tfKmzUKqTeVgMp-1" vertex="1">
                    <mxGeometry x="760" y="410" width="270" height="30" as="geometry"/>
                </mxCell>
                <mxCell id="wSCpoRAWZqlnTNplowZO-30" value="" style="endArrow=none;html=1;rounded=0;endSize=12;elbow=vertical;" parent="cO7851tfKmzUKqTeVgMp-1" edge="1">
                    <mxGeometry width="50" height="50" relative="1" as="geometry">
                        <mxPoint x="10" y="1830" as="sourcePoint"/>
                        <mxPoint x="-280" y="1550" as="targetPoint"/>
                    </mxGeometry>
                </mxCell>
                <mxCell id="wSCpoRAWZqlnTNplowZO-31" style="edgeStyle=elbowEdgeStyle;rounded=0;elbow=vertical;html=1;endArrow=classic;endFill=1;endSize=6;" parent="cO7851tfKmzUKqTeVgMp-1" source="wSCpoRAWZqlnTNplowZO-32" target="wSCpoRAWZqlnTNplowZO-41" edge="1">
                    <mxGeometry relative="1" as="geometry"/>
                </mxCell>
                <mxCell id="wSCpoRAWZqlnTNplowZO-32" value="Boundless Shelves Corporation" style="rounded=0;whiteSpace=wrap;html=1;rotation=-90;" parent="cO7851tfKmzUKqTeVgMp-1" vertex="1">
                    <mxGeometry x="-190" y="1230" width="580" height="40" as="geometry"/>
                </mxCell>
                <mxCell id="wSCpoRAWZqlnTNplowZO-33" value="Some alien cowboy&lt;br&gt;(Book)" style="rounded=0;whiteSpace=wrap;html=1;" parent="cO7851tfKmzUKqTeVgMp-1" vertex="1">
                    <mxGeometry x="320" y="960" width="120" height="40" as="geometry"/>
                </mxCell>
                <mxCell id="wSCpoRAWZqlnTNplowZO-34" style="edgeStyle=orthogonalEdgeStyle;elbow=vertical;html=1;endArrow=classic;endFill=1;endSize=6;curved=1;" parent="cO7851tfKmzUKqTeVgMp-1" source="wSCpoRAWZqlnTNplowZO-36" target="wSCpoRAWZqlnTNplowZO-39" edge="1">
                    <mxGeometry relative="1" as="geometry"/>
                </mxCell>
                <mxCell id="wSCpoRAWZqlnTNplowZO-35" style="html=1;entryX=0;entryY=0.5;entryDx=0;entryDy=0;endArrow=classic;endFill=1;endSize=6;edgeStyle=orthogonalEdgeStyle;curved=1;" parent="cO7851tfKmzUKqTeVgMp-1" source="wSCpoRAWZqlnTNplowZO-36" target="wSCpoRAWZqlnTNplowZO-33" edge="1">
                    <mxGeometry relative="1" as="geometry"/>
                </mxCell>
                <mxCell id="wSCpoRAWZqlnTNplowZO-36" value="Fiction&lt;br&gt;(Section)" style="rounded=0;whiteSpace=wrap;html=1;rotation=-90;" parent="cO7851tfKmzUKqTeVgMp-1" vertex="1">
                    <mxGeometry x="-30" y="1230" width="580" height="40" as="geometry"/>
                </mxCell>
                <mxCell id="wSCpoRAWZqlnTNplowZO-37" style="edgeStyle=orthogonalEdgeStyle;curved=1;html=1;endArrow=classic;endFill=1;endSize=6;" parent="cO7851tfKmzUKqTeVgMp-1" source="wSCpoRAWZqlnTNplowZO-39" target="wSCpoRAWZqlnTNplowZO-52" edge="1">
                    <mxGeometry relative="1" as="geometry"/>
                </mxCell>
                <mxCell id="wSCpoRAWZqlnTNplowZO-38" style="edgeStyle=orthogonalEdgeStyle;curved=1;html=1;endArrow=classic;endFill=1;endSize=6;" parent="cO7851tfKmzUKqTeVgMp-1" source="wSCpoRAWZqlnTNplowZO-39" target="wSCpoRAWZqlnTNplowZO-61" edge="1">
                    <mxGeometry relative="1" as="geometry"/>
                </mxCell>
                <mxCell id="wSCpoRAWZqlnTNplowZO-39" value="Science Fiction&lt;br&gt;(Section)" style="rounded=0;whiteSpace=wrap;html=1;rotation=-90;" parent="cO7851tfKmzUKqTeVgMp-1" vertex="1">
                    <mxGeometry x="80" y="1260" width="520" height="40" as="geometry"/>
                </mxCell>
                <mxCell id="wSCpoRAWZqlnTNplowZO-40" style="edgeStyle=elbowEdgeStyle;rounded=0;elbow=vertical;html=1;endArrow=classic;endFill=1;endSize=6;" parent="cO7851tfKmzUKqTeVgMp-1" source="wSCpoRAWZqlnTNplowZO-41" target="wSCpoRAWZqlnTNplowZO-36" edge="1">
                    <mxGeometry relative="1" as="geometry"/>
                </mxCell>
                <mxCell id="wSCpoRAWZqlnTNplowZO-41" value="Epic Nexus&lt;br&gt;(Store)" style="rounded=0;whiteSpace=wrap;html=1;rotation=-90;" parent="cO7851tfKmzUKqTeVgMp-1" vertex="1">
                    <mxGeometry x="-110" y="1230" width="580" height="40" as="geometry"/>
                </mxCell>
                <mxCell id="wSCpoRAWZqlnTNplowZO-42" style="edgeStyle=orthogonalEdgeStyle;curved=1;html=1;endArrow=classic;endFill=1;endSize=6;" parent="cO7851tfKmzUKqTeVgMp-1" source="wSCpoRAWZqlnTNplowZO-45" target="wSCpoRAWZqlnTNplowZO-60" edge="1">
                    <mxGeometry relative="1" as="geometry"/>
                </mxCell>
                <mxCell id="wSCpoRAWZqlnTNplowZO-43" style="edgeStyle=orthogonalEdgeStyle;curved=1;html=1;endArrow=classic;endFill=1;endSize=6;" parent="cO7851tfKmzUKqTeVgMp-1" source="wSCpoRAWZqlnTNplowZO-45" target="wSCpoRAWZqlnTNplowZO-59" edge="1">
                    <mxGeometry relative="1" as="geometry"/>
                </mxCell>
                <mxCell id="wSCpoRAWZqlnTNplowZO-44" style="edgeStyle=orthogonalEdgeStyle;curved=1;html=1;endArrow=classic;endFill=1;endSize=6;" parent="cO7851tfKmzUKqTeVgMp-1" source="wSCpoRAWZqlnTNplowZO-45" target="wSCpoRAWZqlnTNplowZO-58" edge="1">
                    <mxGeometry relative="1" as="geometry"/>
                </mxCell>
                <mxCell id="wSCpoRAWZqlnTNplowZO-45" value="Prequel trilogy&lt;br&gt;(Set)" style="rounded=0;whiteSpace=wrap;html=1;rotation=-90;" parent="cO7851tfKmzUKqTeVgMp-1" vertex="1">
                    <mxGeometry x="430" y="1130" width="140" height="40" as="geometry"/>
                </mxCell>
                <mxCell id="wSCpoRAWZqlnTNplowZO-46" value="Episode V: The Empire Strikes Back" style="rounded=0;whiteSpace=wrap;html=1;" parent="cO7851tfKmzUKqTeVgMp-1" vertex="1">
                    <mxGeometry x="560" y="1290" width="120" height="40" as="geometry"/>
                </mxCell>
                <mxCell id="wSCpoRAWZqlnTNplowZO-47" value="Episode VI: Return of the Jedi" style="rounded=0;whiteSpace=wrap;html=1;" parent="cO7851tfKmzUKqTeVgMp-1" vertex="1">
                    <mxGeometry x="560" y="1340" width="120" height="40" as="geometry"/>
                </mxCell>
                <mxCell id="wSCpoRAWZqlnTNplowZO-48" value="Episode VII: The Force Awakens" style="rounded=0;whiteSpace=wrap;html=1;" parent="cO7851tfKmzUKqTeVgMp-1" vertex="1">
                    <mxGeometry x="560" y="1400" width="120" height="40" as="geometry"/>
                </mxCell>
                <mxCell id="wSCpoRAWZqlnTNplowZO-49" style="edgeStyle=orthogonalEdgeStyle;curved=1;html=1;endArrow=classic;endFill=1;endSize=6;" parent="cO7851tfKmzUKqTeVgMp-1" source="wSCpoRAWZqlnTNplowZO-52" target="wSCpoRAWZqlnTNplowZO-45" edge="1">
                    <mxGeometry relative="1" as="geometry"/>
                </mxCell>
                <mxCell id="wSCpoRAWZqlnTNplowZO-50" style="edgeStyle=orthogonalEdgeStyle;curved=1;html=1;endArrow=classic;endFill=1;endSize=6;" parent="cO7851tfKmzUKqTeVgMp-1" source="wSCpoRAWZqlnTNplowZO-52" target="wSCpoRAWZqlnTNplowZO-56" edge="1">
                    <mxGeometry relative="1" as="geometry"/>
                </mxCell>
                <mxCell id="wSCpoRAWZqlnTNplowZO-51" style="edgeStyle=orthogonalEdgeStyle;curved=1;html=1;endArrow=classic;endFill=1;endSize=6;" parent="cO7851tfKmzUKqTeVgMp-1" source="wSCpoRAWZqlnTNplowZO-52" target="wSCpoRAWZqlnTNplowZO-67" edge="1">
                    <mxGeometry relative="1" as="geometry"/>
                </mxCell>
                <mxCell id="wSCpoRAWZqlnTNplowZO-52" value="Star Wars&lt;br&gt;(Set)" style="rounded=0;whiteSpace=wrap;html=1;rotation=-90;" parent="cO7851tfKmzUKqTeVgMp-1" vertex="1">
                    <mxGeometry x="190" y="1290" width="460" height="40" as="geometry"/>
                </mxCell>
                <mxCell id="wSCpoRAWZqlnTNplowZO-53" style="edgeStyle=orthogonalEdgeStyle;curved=1;html=1;endArrow=classic;endFill=1;endSize=6;" parent="cO7851tfKmzUKqTeVgMp-1" source="wSCpoRAWZqlnTNplowZO-56" target="wSCpoRAWZqlnTNplowZO-57" edge="1">
                    <mxGeometry relative="1" as="geometry"/>
                </mxCell>
                <mxCell id="wSCpoRAWZqlnTNplowZO-54" style="edgeStyle=orthogonalEdgeStyle;curved=1;html=1;endArrow=classic;endFill=1;endSize=6;" parent="cO7851tfKmzUKqTeVgMp-1" source="wSCpoRAWZqlnTNplowZO-56" target="wSCpoRAWZqlnTNplowZO-46" edge="1">
                    <mxGeometry relative="1" as="geometry"/>
                </mxCell>
                <mxCell id="wSCpoRAWZqlnTNplowZO-55" style="edgeStyle=orthogonalEdgeStyle;curved=1;html=1;endArrow=classic;endFill=1;endSize=6;" parent="cO7851tfKmzUKqTeVgMp-1" source="wSCpoRAWZqlnTNplowZO-56" target="wSCpoRAWZqlnTNplowZO-47" edge="1">
                    <mxGeometry relative="1" as="geometry"/>
                </mxCell>
                <mxCell id="wSCpoRAWZqlnTNplowZO-56" value="Original trilogy&lt;br&gt;(Set)" style="rounded=0;whiteSpace=wrap;html=1;rotation=-90;" parent="cO7851tfKmzUKqTeVgMp-1" vertex="1">
                    <mxGeometry x="430" y="1290" width="140" height="40" as="geometry"/>
                </mxCell>
                <mxCell id="wSCpoRAWZqlnTNplowZO-57" value="Episode IV: A New Hope" style="rounded=0;whiteSpace=wrap;html=1;" parent="cO7851tfKmzUKqTeVgMp-1" vertex="1">
                    <mxGeometry x="560" y="1240" width="120" height="40" as="geometry"/>
                </mxCell>
                <mxCell id="wSCpoRAWZqlnTNplowZO-58" value="Episode III: Revenge of the Sith" style="rounded=0;whiteSpace=wrap;html=1;" parent="cO7851tfKmzUKqTeVgMp-1" vertex="1">
                    <mxGeometry x="560" y="1180" width="120" height="40" as="geometry"/>
                </mxCell>
                <mxCell id="wSCpoRAWZqlnTNplowZO-59" value="Episode II: Attack of the Clones" style="rounded=0;whiteSpace=wrap;html=1;" parent="cO7851tfKmzUKqTeVgMp-1" vertex="1">
                    <mxGeometry x="560" y="1130" width="120" height="40" as="geometry"/>
                </mxCell>
                <mxCell id="wSCpoRAWZqlnTNplowZO-60" value="Episode I: The Phantom Menace" style="rounded=0;whiteSpace=wrap;html=1;" parent="cO7851tfKmzUKqTeVgMp-1" vertex="1">
                    <mxGeometry x="560" y="1080" width="120" height="40" as="geometry"/>
                </mxCell>
                <mxCell id="wSCpoRAWZqlnTNplowZO-61" value="Adventures in space&lt;br&gt;(Book)" style="rounded=0;whiteSpace=wrap;html=1;" parent="cO7851tfKmzUKqTeVgMp-1" vertex="1">
                    <mxGeometry x="400" y="1020" width="120" height="40" as="geometry"/>
                </mxCell>
                <mxCell id="wSCpoRAWZqlnTNplowZO-62" value="Episode IX: The Rise of Skywalker" style="rounded=0;whiteSpace=wrap;html=1;" parent="cO7851tfKmzUKqTeVgMp-1" vertex="1">
                    <mxGeometry x="560" y="1500" width="120" height="40" as="geometry"/>
                </mxCell>
                <mxCell id="wSCpoRAWZqlnTNplowZO-63" value="Episode VIII: The Last Jedi" style="rounded=0;whiteSpace=wrap;html=1;" parent="cO7851tfKmzUKqTeVgMp-1" vertex="1">
                    <mxGeometry x="560" y="1450" width="120" height="40" as="geometry"/>
                </mxCell>
                <mxCell id="wSCpoRAWZqlnTNplowZO-64" style="edgeStyle=orthogonalEdgeStyle;curved=1;html=1;endArrow=classic;endFill=1;endSize=6;" parent="cO7851tfKmzUKqTeVgMp-1" source="wSCpoRAWZqlnTNplowZO-67" target="wSCpoRAWZqlnTNplowZO-48" edge="1">
                    <mxGeometry relative="1" as="geometry"/>
                </mxCell>
                <mxCell id="wSCpoRAWZqlnTNplowZO-65" style="edgeStyle=orthogonalEdgeStyle;curved=1;html=1;endArrow=classic;endFill=1;endSize=6;" parent="cO7851tfKmzUKqTeVgMp-1" source="wSCpoRAWZqlnTNplowZO-67" target="wSCpoRAWZqlnTNplowZO-63" edge="1">
                    <mxGeometry relative="1" as="geometry"/>
                </mxCell>
                <mxCell id="wSCpoRAWZqlnTNplowZO-66" style="edgeStyle=orthogonalEdgeStyle;curved=1;html=1;endArrow=classic;endFill=1;endSize=6;" parent="cO7851tfKmzUKqTeVgMp-1" source="wSCpoRAWZqlnTNplowZO-67" target="wSCpoRAWZqlnTNplowZO-62" edge="1">
                    <mxGeometry relative="1" as="geometry"/>
                </mxCell>
                <mxCell id="wSCpoRAWZqlnTNplowZO-67" value="Sequel trilogy&lt;br&gt;(Set)" style="rounded=0;whiteSpace=wrap;html=1;rotation=-90;" parent="cO7851tfKmzUKqTeVgMp-1" vertex="1">
                    <mxGeometry x="430" y="1450" width="140" height="40" as="geometry"/>
                </mxCell>
                <mxCell id="2i81RdlQrnemE45XhG9o-0" style="edgeStyle=elbowEdgeStyle;rounded=0;elbow=vertical;html=1;endArrow=classic;endFill=1;endSize=6;" parent="cO7851tfKmzUKqTeVgMp-1" source="2i81RdlQrnemE45XhG9o-1" target="2i81RdlQrnemE45XhG9o-10" edge="1">
                    <mxGeometry relative="1" as="geometry"/>
                </mxCell>
                <mxCell id="2i81RdlQrnemE45XhG9o-1" value="Boundless Shelves Corporation" style="rounded=0;whiteSpace=wrap;html=1;rotation=0;" parent="cO7851tfKmzUKqTeVgMp-1" vertex="1">
                    <mxGeometry x="760" y="960" width="580" height="40" as="geometry"/>
                </mxCell>
                <mxCell id="2i81RdlQrnemE45XhG9o-2" value="Some alien cowboy&lt;br&gt;(Book)" style="rounded=0;whiteSpace=wrap;html=1;rotation=270;" parent="cO7851tfKmzUKqTeVgMp-1" vertex="1">
                    <mxGeometry x="1260" y="1190" width="120" height="40" as="geometry"/>
                </mxCell>
                <mxCell id="2i81RdlQrnemE45XhG9o-3" style="edgeStyle=orthogonalEdgeStyle;elbow=vertical;html=1;endArrow=classic;endFill=1;endSize=6;rounded=0;" parent="cO7851tfKmzUKqTeVgMp-1" source="2i81RdlQrnemE45XhG9o-5" target="2i81RdlQrnemE45XhG9o-8" edge="1">
                    <mxGeometry relative="1" as="geometry"/>
                </mxCell>
                <mxCell id="2i81RdlQrnemE45XhG9o-4" style="html=1;endArrow=classic;endFill=1;endSize=6;edgeStyle=orthogonalEdgeStyle;rounded=0;" parent="cO7851tfKmzUKqTeVgMp-1" source="2i81RdlQrnemE45XhG9o-5" target="2i81RdlQrnemE45XhG9o-2" edge="1">
                    <mxGeometry relative="1" as="geometry"/>
                </mxCell>
                <mxCell id="2i81RdlQrnemE45XhG9o-5" value="Fiction&lt;br&gt;(Section)" style="rounded=0;whiteSpace=wrap;html=1;rotation=0;" parent="cO7851tfKmzUKqTeVgMp-1" vertex="1">
                    <mxGeometry x="760" y="1080" width="580" height="40" as="geometry"/>
                </mxCell>
                <mxCell id="2i81RdlQrnemE45XhG9o-6" style="edgeStyle=orthogonalEdgeStyle;html=1;endArrow=classic;endFill=1;endSize=6;rounded=0;" parent="cO7851tfKmzUKqTeVgMp-1" source="2i81RdlQrnemE45XhG9o-8" target="2i81RdlQrnemE45XhG9o-21" edge="1">
                    <mxGeometry relative="1" as="geometry"/>
                </mxCell>
                <mxCell id="2i81RdlQrnemE45XhG9o-7" style="edgeStyle=orthogonalEdgeStyle;html=1;endArrow=classic;endFill=1;endSize=6;rounded=0;" parent="cO7851tfKmzUKqTeVgMp-1" source="2i81RdlQrnemE45XhG9o-8" target="2i81RdlQrnemE45XhG9o-30" edge="1">
                    <mxGeometry relative="1" as="geometry"/>
                </mxCell>
                <mxCell id="2i81RdlQrnemE45XhG9o-8" value="Science Fiction&lt;br&gt;(Section)" style="rounded=0;whiteSpace=wrap;html=1;rotation=0;" parent="cO7851tfKmzUKqTeVgMp-1" vertex="1">
                    <mxGeometry x="760" y="1150" width="520" height="40" as="geometry"/>
                </mxCell>
                <mxCell id="2i81RdlQrnemE45XhG9o-9" style="edgeStyle=elbowEdgeStyle;rounded=0;elbow=vertical;html=1;endArrow=classic;endFill=1;endSize=6;" parent="cO7851tfKmzUKqTeVgMp-1" source="2i81RdlQrnemE45XhG9o-10" target="2i81RdlQrnemE45XhG9o-5" edge="1">
                    <mxGeometry relative="1" as="geometry"/>
                </mxCell>
                <mxCell id="2i81RdlQrnemE45XhG9o-10" value="Epic Nexus&lt;br&gt;(Store)" style="rounded=0;whiteSpace=wrap;html=1;rotation=0;" parent="cO7851tfKmzUKqTeVgMp-1" vertex="1">
                    <mxGeometry x="760" y="1020" width="580" height="40" as="geometry"/>
                </mxCell>
                <mxCell id="2i81RdlQrnemE45XhG9o-11" style="edgeStyle=orthogonalEdgeStyle;html=1;endArrow=classic;endFill=1;endSize=6;rounded=0;" parent="cO7851tfKmzUKqTeVgMp-1" source="2i81RdlQrnemE45XhG9o-14" target="2i81RdlQrnemE45XhG9o-29" edge="1">
                    <mxGeometry relative="1" as="geometry"/>
                </mxCell>
                <mxCell id="2i81RdlQrnemE45XhG9o-12" style="edgeStyle=orthogonalEdgeStyle;html=1;endArrow=classic;endFill=1;endSize=6;rounded=0;" parent="cO7851tfKmzUKqTeVgMp-1" source="2i81RdlQrnemE45XhG9o-14" target="2i81RdlQrnemE45XhG9o-28" edge="1">
                    <mxGeometry relative="1" as="geometry"/>
                </mxCell>
                <mxCell id="2i81RdlQrnemE45XhG9o-13" style="edgeStyle=orthogonalEdgeStyle;html=1;endArrow=classic;endFill=1;endSize=6;startArrow=none;rounded=0;" parent="cO7851tfKmzUKqTeVgMp-1" source="2i81RdlQrnemE45XhG9o-14" target="2i81RdlQrnemE45XhG9o-27" edge="1">
                    <mxGeometry relative="1" as="geometry"/>
                </mxCell>
                <mxCell id="2i81RdlQrnemE45XhG9o-14" value="Prequel trilogy&lt;br&gt;(Set)" style="rounded=0;whiteSpace=wrap;html=1;rotation=0;" parent="cO7851tfKmzUKqTeVgMp-1" vertex="1">
                    <mxGeometry x="760" y="1290" width="140" height="40" as="geometry"/>
                </mxCell>
                <mxCell id="2i81RdlQrnemE45XhG9o-15" value="Episode V: The Empire Strikes Back" style="rounded=0;whiteSpace=wrap;html=1;rotation=270;" parent="cO7851tfKmzUKqTeVgMp-1" vertex="1">
                    <mxGeometry x="930" y="1400" width="120" height="40" as="geometry"/>
                </mxCell>
                <mxCell id="2i81RdlQrnemE45XhG9o-16" value="Episode VI: Return of the Jedi" style="rounded=0;whiteSpace=wrap;html=1;rotation=270;" parent="cO7851tfKmzUKqTeVgMp-1" vertex="1">
                    <mxGeometry x="980" y="1400" width="120" height="40" as="geometry"/>
                </mxCell>
                <mxCell id="2i81RdlQrnemE45XhG9o-17" value="Episode VII: The Force Awakens" style="rounded=0;whiteSpace=wrap;html=1;rotation=270;" parent="cO7851tfKmzUKqTeVgMp-1" vertex="1">
                    <mxGeometry x="1040" y="1400" width="120" height="40" as="geometry"/>
                </mxCell>
                <mxCell id="2i81RdlQrnemE45XhG9o-18" style="edgeStyle=orthogonalEdgeStyle;html=1;endArrow=classic;endFill=1;endSize=6;rounded=0;" parent="cO7851tfKmzUKqTeVgMp-1" source="2i81RdlQrnemE45XhG9o-21" target="2i81RdlQrnemE45XhG9o-14" edge="1">
                    <mxGeometry relative="1" as="geometry"/>
                </mxCell>
                <mxCell id="2i81RdlQrnemE45XhG9o-19" style="edgeStyle=orthogonalEdgeStyle;html=1;endArrow=classic;endFill=1;endSize=6;rounded=0;" parent="cO7851tfKmzUKqTeVgMp-1" source="2i81RdlQrnemE45XhG9o-21" target="2i81RdlQrnemE45XhG9o-25" edge="1">
                    <mxGeometry relative="1" as="geometry"/>
                </mxCell>
                <mxCell id="2i81RdlQrnemE45XhG9o-20" style="edgeStyle=orthogonalEdgeStyle;html=1;endArrow=classic;endFill=1;endSize=6;rounded=0;" parent="cO7851tfKmzUKqTeVgMp-1" source="2i81RdlQrnemE45XhG9o-21" target="2i81RdlQrnemE45XhG9o-36" edge="1">
                    <mxGeometry relative="1" as="geometry"/>
                </mxCell>
                <mxCell id="2i81RdlQrnemE45XhG9o-21" value="Star Wars&lt;br&gt;(Set)" style="rounded=0;whiteSpace=wrap;html=1;rotation=0;" parent="cO7851tfKmzUKqTeVgMp-1" vertex="1">
                    <mxGeometry x="760" y="1220" width="460" height="40" as="geometry"/>
                </mxCell>
                <mxCell id="2i81RdlQrnemE45XhG9o-22" style="edgeStyle=orthogonalEdgeStyle;html=1;endArrow=classic;endFill=1;endSize=6;rounded=0;" parent="cO7851tfKmzUKqTeVgMp-1" source="2i81RdlQrnemE45XhG9o-25" target="2i81RdlQrnemE45XhG9o-26" edge="1">
                    <mxGeometry relative="1" as="geometry"/>
                </mxCell>
                <mxCell id="2i81RdlQrnemE45XhG9o-23" style="edgeStyle=orthogonalEdgeStyle;html=1;endArrow=classic;endFill=1;endSize=6;rounded=0;" parent="cO7851tfKmzUKqTeVgMp-1" source="2i81RdlQrnemE45XhG9o-25" target="2i81RdlQrnemE45XhG9o-15" edge="1">
                    <mxGeometry relative="1" as="geometry"/>
                </mxCell>
                <mxCell id="2i81RdlQrnemE45XhG9o-24" style="edgeStyle=orthogonalEdgeStyle;html=1;endArrow=classic;endFill=1;endSize=6;rounded=0;" parent="cO7851tfKmzUKqTeVgMp-1" source="2i81RdlQrnemE45XhG9o-25" target="2i81RdlQrnemE45XhG9o-16" edge="1">
                    <mxGeometry relative="1" as="geometry"/>
                </mxCell>
                <mxCell id="2i81RdlQrnemE45XhG9o-26" value="Episode IV: A New Hope" style="rounded=0;whiteSpace=wrap;html=1;rotation=270;" parent="cO7851tfKmzUKqTeVgMp-1" vertex="1">
                    <mxGeometry x="880" y="1400" width="120" height="40" as="geometry"/>
                </mxCell>
                <mxCell id="2i81RdlQrnemE45XhG9o-27" value="Episode III: Revenge of the Sith" style="rounded=0;whiteSpace=wrap;html=1;rotation=270;" parent="cO7851tfKmzUKqTeVgMp-1" vertex="1">
                    <mxGeometry x="820" y="1400" width="120" height="40" as="geometry"/>
                </mxCell>
                <mxCell id="2i81RdlQrnemE45XhG9o-28" value="Episode II: Attack of the Clones" style="rounded=0;whiteSpace=wrap;html=1;rotation=270;" parent="cO7851tfKmzUKqTeVgMp-1" vertex="1">
                    <mxGeometry x="770" y="1400" width="120" height="40" as="geometry"/>
                </mxCell>
                <mxCell id="2i81RdlQrnemE45XhG9o-29" value="Episode I: The Phantom Menace" style="rounded=0;whiteSpace=wrap;html=1;rotation=270;" parent="cO7851tfKmzUKqTeVgMp-1" vertex="1">
                    <mxGeometry x="720" y="1400" width="120" height="40" as="geometry"/>
                </mxCell>
                <mxCell id="2i81RdlQrnemE45XhG9o-30" value="Adventures in space&lt;br&gt;(Book)" style="rounded=0;whiteSpace=wrap;html=1;rotation=270;" parent="cO7851tfKmzUKqTeVgMp-1" vertex="1">
                    <mxGeometry x="1200" y="1260" width="120" height="40" as="geometry"/>
                </mxCell>
                <mxCell id="2i81RdlQrnemE45XhG9o-31" value="Episode IX: The Rise of Skywalker" style="rounded=0;whiteSpace=wrap;html=1;rotation=270;" parent="cO7851tfKmzUKqTeVgMp-1" vertex="1">
                    <mxGeometry x="1140" y="1400" width="120" height="40" as="geometry"/>
                </mxCell>
                <mxCell id="2i81RdlQrnemE45XhG9o-32" value="Episode VIII: The Last Jedi" style="rounded=0;whiteSpace=wrap;html=1;rotation=270;" parent="cO7851tfKmzUKqTeVgMp-1" vertex="1">
                    <mxGeometry x="1090" y="1400" width="120" height="40" as="geometry"/>
                </mxCell>
                <mxCell id="2i81RdlQrnemE45XhG9o-33" style="edgeStyle=orthogonalEdgeStyle;html=1;endArrow=classic;endFill=1;endSize=6;rounded=0;" parent="cO7851tfKmzUKqTeVgMp-1" source="2i81RdlQrnemE45XhG9o-36" target="2i81RdlQrnemE45XhG9o-17" edge="1">
                    <mxGeometry relative="1" as="geometry"/>
                </mxCell>
                <mxCell id="2i81RdlQrnemE45XhG9o-34" style="edgeStyle=orthogonalEdgeStyle;html=1;endArrow=classic;endFill=1;endSize=6;rounded=0;" parent="cO7851tfKmzUKqTeVgMp-1" source="2i81RdlQrnemE45XhG9o-36" target="2i81RdlQrnemE45XhG9o-32" edge="1">
                    <mxGeometry relative="1" as="geometry"/>
                </mxCell>
                <mxCell id="2i81RdlQrnemE45XhG9o-35" style="edgeStyle=orthogonalEdgeStyle;html=1;endArrow=classic;endFill=1;endSize=6;rounded=0;" parent="cO7851tfKmzUKqTeVgMp-1" source="2i81RdlQrnemE45XhG9o-36" target="2i81RdlQrnemE45XhG9o-31" edge="1">
                    <mxGeometry relative="1" as="geometry"/>
                </mxCell>
                <mxCell id="2i81RdlQrnemE45XhG9o-36" value="Sequel trilogy&lt;br&gt;(Set)" style="rounded=0;whiteSpace=wrap;html=1;rotation=0;" parent="cO7851tfKmzUKqTeVgMp-1" vertex="1">
                    <mxGeometry x="1080" y="1290" width="140" height="40" as="geometry"/>
                </mxCell>
                <mxCell id="2i81RdlQrnemE45XhG9o-37" value="" style="edgeStyle=orthogonalEdgeStyle;curved=1;html=1;endArrow=none;endFill=1;endSize=6;" parent="cO7851tfKmzUKqTeVgMp-1" source="2i81RdlQrnemE45XhG9o-14" target="2i81RdlQrnemE45XhG9o-25" edge="1">
                    <mxGeometry relative="1" as="geometry">
                        <mxPoint x="900" y="1370" as="sourcePoint"/>
                        <mxPoint x="1720" y="1420" as="targetPoint"/>
                    </mxGeometry>
                </mxCell>
                <mxCell id="2i81RdlQrnemE45XhG9o-25" value="Original trilogy&lt;br&gt;(Set)" style="rounded=0;whiteSpace=wrap;html=1;rotation=0;" parent="cO7851tfKmzUKqTeVgMp-1" vertex="1">
                    <mxGeometry x="920" y="1290" width="140" height="40" as="geometry"/>
                </mxCell>
                <mxCell id="2i81RdlQrnemE45XhG9o-48" style="edgeStyle=orthogonalEdgeStyle;rounded=0;html=1;endArrow=classic;endFill=1;endSize=6;" parent="cO7851tfKmzUKqTeVgMp-1" source="2i81RdlQrnemE45XhG9o-38" target="2i81RdlQrnemE45XhG9o-41" edge="1">
                    <mxGeometry relative="1" as="geometry"/>
                </mxCell>
                <mxCell id="2i81RdlQrnemE45XhG9o-49" style="edgeStyle=orthogonalEdgeStyle;rounded=0;html=1;endArrow=classic;endFill=1;endSize=6;" parent="cO7851tfKmzUKqTeVgMp-1" source="2i81RdlQrnemE45XhG9o-38" target="2i81RdlQrnemE45XhG9o-42" edge="1">
                    <mxGeometry relative="1" as="geometry"/>
                </mxCell>
                <mxCell id="2i81RdlQrnemE45XhG9o-38" value="Boundless Shelves Corporation" style="rounded=0;whiteSpace=wrap;html=1;rotation=0;" parent="cO7851tfKmzUKqTeVgMp-1" vertex="1">
                    <mxGeometry x="1440" y="960" width="660" height="40" as="geometry"/>
                </mxCell>
                <mxCell id="2i81RdlQrnemE45XhG9o-56" style="edgeStyle=orthogonalEdgeStyle;rounded=0;html=1;endArrow=classic;endFill=1;endSize=6;" parent="cO7851tfKmzUKqTeVgMp-1" source="2i81RdlQrnemE45XhG9o-39" target="2i81RdlQrnemE45XhG9o-40" edge="1">
                    <mxGeometry relative="1" as="geometry"/>
                </mxCell>
                <mxCell id="2i81RdlQrnemE45XhG9o-39" value="Fiction&lt;br&gt;(Section)" style="rounded=0;whiteSpace=wrap;html=1;rotation=0;" parent="cO7851tfKmzUKqTeVgMp-1" vertex="1">
                    <mxGeometry x="1440" y="1095" width="100" height="40" as="geometry"/>
                </mxCell>
                <mxCell id="2i81RdlQrnemE45XhG9o-63" style="edgeStyle=orthogonalEdgeStyle;rounded=0;html=1;endArrow=classic;endFill=1;endSize=6;" parent="cO7851tfKmzUKqTeVgMp-1" source="2i81RdlQrnemE45XhG9o-40" target="2i81RdlQrnemE45XhG9o-57" edge="1">
                    <mxGeometry relative="1" as="geometry"/>
                </mxCell>
                <mxCell id="2i81RdlQrnemE45XhG9o-40" value="Science Fiction&lt;br&gt;(Section)" style="rounded=0;whiteSpace=wrap;html=1;rotation=0;" parent="cO7851tfKmzUKqTeVgMp-1" vertex="1">
                    <mxGeometry x="1440" y="1160" width="100" height="40" as="geometry"/>
                </mxCell>
                <mxCell id="2i81RdlQrnemE45XhG9o-53" style="edgeStyle=orthogonalEdgeStyle;rounded=0;html=1;endArrow=classic;endFill=1;endSize=6;" parent="cO7851tfKmzUKqTeVgMp-1" source="2i81RdlQrnemE45XhG9o-41" target="2i81RdlQrnemE45XhG9o-47" edge="1">
                    <mxGeometry relative="1" as="geometry"/>
                </mxCell>
                <mxCell id="2i81RdlQrnemE45XhG9o-54" style="edgeStyle=orthogonalEdgeStyle;rounded=0;html=1;endArrow=classic;endFill=1;endSize=6;" parent="cO7851tfKmzUKqTeVgMp-1" source="2i81RdlQrnemE45XhG9o-41" target="2i81RdlQrnemE45XhG9o-46" edge="1">
                    <mxGeometry relative="1" as="geometry"/>
                </mxCell>
                <mxCell id="2i81RdlQrnemE45XhG9o-55" style="edgeStyle=orthogonalEdgeStyle;rounded=0;html=1;endArrow=classic;endFill=1;endSize=6;" parent="cO7851tfKmzUKqTeVgMp-1" source="2i81RdlQrnemE45XhG9o-41" target="2i81RdlQrnemE45XhG9o-39" edge="1">
                    <mxGeometry relative="1" as="geometry"/>
                </mxCell>
                <mxCell id="2i81RdlQrnemE45XhG9o-41" value="Epic Nexus&lt;br&gt;(Store)" style="rounded=0;whiteSpace=wrap;html=1;rotation=0;" parent="cO7851tfKmzUKqTeVgMp-1" vertex="1">
                    <mxGeometry x="1440" y="1030" width="320" height="40" as="geometry"/>
                </mxCell>
                <mxCell id="2i81RdlQrnemE45XhG9o-50" style="edgeStyle=orthogonalEdgeStyle;rounded=0;html=1;endArrow=classic;endFill=1;endSize=6;" parent="cO7851tfKmzUKqTeVgMp-1" source="2i81RdlQrnemE45XhG9o-42" target="2i81RdlQrnemE45XhG9o-45" edge="1">
                    <mxGeometry relative="1" as="geometry"/>
                </mxCell>
                <mxCell id="2i81RdlQrnemE45XhG9o-51" style="edgeStyle=orthogonalEdgeStyle;rounded=0;html=1;endArrow=classic;endFill=1;endSize=6;" parent="cO7851tfKmzUKqTeVgMp-1" source="2i81RdlQrnemE45XhG9o-42" target="2i81RdlQrnemE45XhG9o-44" edge="1">
                    <mxGeometry relative="1" as="geometry"/>
                </mxCell>
                <mxCell id="2i81RdlQrnemE45XhG9o-52" style="edgeStyle=orthogonalEdgeStyle;rounded=0;html=1;endArrow=classic;endFill=1;endSize=6;" parent="cO7851tfKmzUKqTeVgMp-1" source="2i81RdlQrnemE45XhG9o-42" target="2i81RdlQrnemE45XhG9o-43" edge="1">
                    <mxGeometry relative="1" as="geometry"/>
                </mxCell>
                <mxCell id="2i81RdlQrnemE45XhG9o-42" value="Tale Towers&lt;br&gt;(Store)" style="rounded=0;whiteSpace=wrap;html=1;" parent="cO7851tfKmzUKqTeVgMp-1" vertex="1">
                    <mxGeometry x="1780" y="1030" width="320" height="40" as="geometry"/>
                </mxCell>
                <mxCell id="2i81RdlQrnemE45XhG9o-66" style="edgeStyle=orthogonalEdgeStyle;rounded=0;html=1;endArrow=classic;endFill=1;endSize=6;" parent="cO7851tfKmzUKqTeVgMp-1" source="2i81RdlQrnemE45XhG9o-43" target="2i81RdlQrnemE45XhG9o-60" edge="1">
                    <mxGeometry relative="1" as="geometry"/>
                </mxCell>
                <mxCell id="2i81RdlQrnemE45XhG9o-43" value="Fantasy&lt;br&gt;(Section)" style="rounded=0;whiteSpace=wrap;html=1;" parent="cO7851tfKmzUKqTeVgMp-1" vertex="1">
                    <mxGeometry x="1780" y="1095" width="100" height="40" as="geometry"/>
                </mxCell>
                <mxCell id="2i81RdlQrnemE45XhG9o-67" style="edgeStyle=orthogonalEdgeStyle;rounded=0;html=1;endArrow=classic;endFill=1;endSize=6;" parent="cO7851tfKmzUKqTeVgMp-1" source="2i81RdlQrnemE45XhG9o-44" target="2i81RdlQrnemE45XhG9o-61" edge="1">
                    <mxGeometry relative="1" as="geometry"/>
                </mxCell>
                <mxCell id="2i81RdlQrnemE45XhG9o-44" value="Adventure&lt;br&gt;(Section)" style="rounded=0;whiteSpace=wrap;html=1;" parent="cO7851tfKmzUKqTeVgMp-1" vertex="1">
                    <mxGeometry x="1890" y="1095" width="100" height="40" as="geometry"/>
                </mxCell>
                <mxCell id="2i81RdlQrnemE45XhG9o-68" style="edgeStyle=orthogonalEdgeStyle;rounded=0;html=1;endArrow=classic;endFill=1;endSize=6;" parent="cO7851tfKmzUKqTeVgMp-1" source="2i81RdlQrnemE45XhG9o-45" target="2i81RdlQrnemE45XhG9o-62" edge="1">
                    <mxGeometry relative="1" as="geometry"/>
                </mxCell>
                <mxCell id="2i81RdlQrnemE45XhG9o-45" value="Drama&lt;br&gt;(Section)" style="rounded=0;whiteSpace=wrap;html=1;" parent="cO7851tfKmzUKqTeVgMp-1" vertex="1">
                    <mxGeometry x="2000" y="1095" width="100" height="40" as="geometry"/>
                </mxCell>
                <mxCell id="2i81RdlQrnemE45XhG9o-64" style="edgeStyle=orthogonalEdgeStyle;rounded=0;html=1;endArrow=classic;endFill=1;endSize=6;" parent="cO7851tfKmzUKqTeVgMp-1" source="2i81RdlQrnemE45XhG9o-46" target="2i81RdlQrnemE45XhG9o-58" edge="1">
                    <mxGeometry relative="1" as="geometry"/>
                </mxCell>
                <mxCell id="2i81RdlQrnemE45XhG9o-46" value="Fantasy&lt;br&gt;(Section)" style="rounded=0;whiteSpace=wrap;html=1;rotation=0;" parent="cO7851tfKmzUKqTeVgMp-1" vertex="1">
                    <mxGeometry x="1550" y="1095" width="100" height="40" as="geometry"/>
                </mxCell>
                <mxCell id="2i81RdlQrnemE45XhG9o-65" style="edgeStyle=orthogonalEdgeStyle;rounded=0;html=1;endArrow=classic;endFill=1;endSize=6;" parent="cO7851tfKmzUKqTeVgMp-1" source="2i81RdlQrnemE45XhG9o-47" target="2i81RdlQrnemE45XhG9o-59" edge="1">
                    <mxGeometry relative="1" as="geometry"/>
                </mxCell>
                <mxCell id="2i81RdlQrnemE45XhG9o-47" value="Adventure&lt;br&gt;(Section)" style="rounded=0;whiteSpace=wrap;html=1;rotation=0;" parent="cO7851tfKmzUKqTeVgMp-1" vertex="1">
                    <mxGeometry x="1660" y="1095" width="100" height="40" as="geometry"/>
                </mxCell>
                <mxCell id="2i81RdlQrnemE45XhG9o-57" value="..." style="rounded=0;whiteSpace=wrap;html=1;rotation=0;" parent="cO7851tfKmzUKqTeVgMp-1" vertex="1">
                    <mxGeometry x="1440" y="1230" width="100" height="40" as="geometry"/>
                </mxCell>
                <mxCell id="2i81RdlQrnemE45XhG9o-58" value="..." style="rounded=0;whiteSpace=wrap;html=1;rotation=0;" parent="cO7851tfKmzUKqTeVgMp-1" vertex="1">
                    <mxGeometry x="1550" y="1160" width="100" height="40" as="geometry"/>
                </mxCell>
                <mxCell id="2i81RdlQrnemE45XhG9o-59" value="..." style="rounded=0;whiteSpace=wrap;html=1;rotation=0;" parent="cO7851tfKmzUKqTeVgMp-1" vertex="1">
                    <mxGeometry x="1660" y="1160" width="100" height="40" as="geometry"/>
                </mxCell>
                <mxCell id="2i81RdlQrnemE45XhG9o-60" value="..." style="rounded=0;whiteSpace=wrap;html=1;rotation=0;" parent="cO7851tfKmzUKqTeVgMp-1" vertex="1">
                    <mxGeometry x="1780" y="1160" width="100" height="40" as="geometry"/>
                </mxCell>
                <mxCell id="2i81RdlQrnemE45XhG9o-61" value="..." style="rounded=0;whiteSpace=wrap;html=1;rotation=0;" parent="cO7851tfKmzUKqTeVgMp-1" vertex="1">
                    <mxGeometry x="1890" y="1160" width="100" height="40" as="geometry"/>
                </mxCell>
                <mxCell id="2i81RdlQrnemE45XhG9o-62" value="..." style="rounded=0;whiteSpace=wrap;html=1;rotation=0;" parent="cO7851tfKmzUKqTeVgMp-1" vertex="1">
                    <mxGeometry x="2000" y="1160" width="100" height="40" as="geometry"/>
                </mxCell>
                <mxCell id="2i81RdlQrnemE45XhG9o-69" value="" style="endArrow=none;html=1;rounded=0;endSize=6;" parent="cO7851tfKmzUKqTeVgMp-1" edge="1">
                    <mxGeometry width="50" height="50" relative="1" as="geometry">
                        <mxPoint x="1860" y="1610" as="sourcePoint"/>
                        <mxPoint x="2410" y="1100" as="targetPoint"/>
                    </mxGeometry>
                </mxCell>
                <mxCell id="Wle782yN08Ag15LEDRdv-0" value="" style="endArrow=none;html=1;" edge="1" parent="cO7851tfKmzUKqTeVgMp-1">
                    <mxGeometry width="50" height="50" relative="1" as="geometry">
                        <mxPoint x="-90" y="30" as="sourcePoint"/>
                        <mxPoint x="-40" y="-20" as="targetPoint"/>
                    </mxGeometry>
                </mxCell>
            </root>
        </mxGraphModel>
    </diagram>
    <diagram id="HceDbjDgCmCyY7lVk_Eo" name="Decorator">
        <mxGraphModel dx="1815" dy="916" grid="1" gridSize="10" guides="1" tooltips="1" connect="1" arrows="1" fold="1" page="0" pageScale="1" pageWidth="850" pageHeight="1100" background="none" math="0" shadow="0">
            <root>
                <mxCell id="0"/>
                <mxCell id="1" parent="0"/>
                <mxCell id="oeMKcD0v4NiOrXn6EB73-1" value="" style="shape=umlLifeline;participant=umlActor;perimeter=lifelinePerimeter;whiteSpace=wrap;html=1;container=1;collapsible=0;recursiveResize=0;verticalAlign=top;spacingTop=36;labelBackgroundColor=#ffffff;outlineConnect=0;" parent="1" vertex="1">
                    <mxGeometry x="70" y="120" width="20" height="360" as="geometry"/>
                </mxCell>
                <mxCell id="oeMKcD0v4NiOrXn6EB73-2" value=":DecoratorA" style="shape=umlLifeline;perimeter=lifelinePerimeter;whiteSpace=wrap;html=1;container=1;collapsible=0;recursiveResize=0;outlineConnect=0;" parent="1" vertex="1">
                    <mxGeometry x="190" y="120" width="100" height="360" as="geometry"/>
                </mxCell>
                <mxCell id="oeMKcD0v4NiOrXn6EB73-3" value="" style="html=1;points=[];perimeter=orthogonalPerimeter;" parent="oeMKcD0v4NiOrXn6EB73-2" vertex="1">
                    <mxGeometry x="45" y="80" width="10" height="250" as="geometry"/>
                </mxCell>
                <mxCell id="oeMKcD0v4NiOrXn6EB73-27" value="" style="html=1;points=[];perimeter=orthogonalPerimeter;" parent="oeMKcD0v4NiOrXn6EB73-2" vertex="1">
                    <mxGeometry x="50" y="280" width="10" height="40" as="geometry"/>
                </mxCell>
                <mxCell id="oeMKcD0v4NiOrXn6EB73-28" value="AddBehaviorA()" style="edgeStyle=orthogonalEdgeStyle;html=1;align=left;spacingLeft=2;endArrow=block;rounded=0;entryX=1;entryY=0;" parent="oeMKcD0v4NiOrXn6EB73-2" target="oeMKcD0v4NiOrXn6EB73-27" edge="1">
                    <mxGeometry relative="1" as="geometry">
                        <mxPoint x="55" y="260" as="sourcePoint"/>
                        <Array as="points">
                            <mxPoint x="80" y="260"/>
                        </Array>
                    </mxGeometry>
                </mxCell>
                <mxCell id="oeMKcD0v4NiOrXn6EB73-4" value="Operation()" style="html=1;verticalAlign=bottom;endArrow=block;entryX=0;entryY=0;" parent="1" source="oeMKcD0v4NiOrXn6EB73-25" target="oeMKcD0v4NiOrXn6EB73-3" edge="1">
                    <mxGeometry relative="1" as="geometry">
                        <mxPoint x="80" y="200" as="sourcePoint"/>
                    </mxGeometry>
                </mxCell>
                <mxCell id="oeMKcD0v4NiOrXn6EB73-5" value="return" style="html=1;verticalAlign=bottom;endArrow=open;dashed=1;endSize=8;exitX=-0.007;exitY=0.999;exitPerimeter=0;" parent="1" source="oeMKcD0v4NiOrXn6EB73-3" target="oeMKcD0v4NiOrXn6EB73-25" edge="1">
                    <mxGeometry relative="1" as="geometry">
                        <mxPoint x="80" y="276" as="targetPoint"/>
                        <mxPoint x="235" y="460" as="sourcePoint"/>
                    </mxGeometry>
                </mxCell>
                <mxCell id="oeMKcD0v4NiOrXn6EB73-6" value=":ComponentA" style="shape=umlLifeline;perimeter=lifelinePerimeter;whiteSpace=wrap;html=1;container=1;collapsible=0;recursiveResize=0;outlineConnect=0;" parent="1" vertex="1">
                    <mxGeometry x="550" y="120" width="100" height="360" as="geometry"/>
                </mxCell>
                <mxCell id="oeMKcD0v4NiOrXn6EB73-7" value="" style="html=1;points=[];perimeter=orthogonalPerimeter;" parent="oeMKcD0v4NiOrXn6EB73-6" vertex="1">
                    <mxGeometry x="45" y="100" width="10" height="40" as="geometry"/>
                </mxCell>
                <mxCell id="oeMKcD0v4NiOrXn6EB73-8" value="Operation()" style="html=1;verticalAlign=bottom;endArrow=block;entryX=0;entryY=0;" parent="1" source="oeMKcD0v4NiOrXn6EB73-21" target="oeMKcD0v4NiOrXn6EB73-7" edge="1">
                    <mxGeometry relative="1" as="geometry">
                        <mxPoint x="245" y="220" as="sourcePoint"/>
                    </mxGeometry>
                </mxCell>
                <mxCell id="oeMKcD0v4NiOrXn6EB73-9" value="return" style="html=1;verticalAlign=bottom;endArrow=open;dashed=1;endSize=8;exitX=0;exitY=0.95;" parent="1" source="oeMKcD0v4NiOrXn6EB73-7" target="oeMKcD0v4NiOrXn6EB73-21" edge="1">
                    <mxGeometry relative="1" as="geometry">
                        <mxPoint x="245" y="296" as="targetPoint"/>
                    </mxGeometry>
                </mxCell>
                <mxCell id="oeMKcD0v4NiOrXn6EB73-10" value="" style="shape=umlLifeline;participant=umlActor;perimeter=lifelinePerimeter;whiteSpace=wrap;html=1;container=1;collapsible=0;recursiveResize=0;verticalAlign=top;spacingTop=36;labelBackgroundColor=#ffffff;outlineConnect=0;" parent="1" vertex="1">
                    <mxGeometry x="70" y="940" width="20" height="160" as="geometry"/>
                </mxCell>
                <mxCell id="oeMKcD0v4NiOrXn6EB73-15" value=":ComponentA" style="shape=umlLifeline;perimeter=lifelinePerimeter;whiteSpace=wrap;html=1;container=1;collapsible=0;recursiveResize=0;outlineConnect=0;" parent="1" vertex="1">
                    <mxGeometry x="190" y="940" width="100" height="160" as="geometry"/>
                </mxCell>
                <mxCell id="oeMKcD0v4NiOrXn6EB73-16" value="" style="html=1;points=[];perimeter=orthogonalPerimeter;" parent="oeMKcD0v4NiOrXn6EB73-15" vertex="1">
                    <mxGeometry x="45" y="100" width="10" height="40" as="geometry"/>
                </mxCell>
                <mxCell id="oeMKcD0v4NiOrXn6EB73-17" value="Operation()" style="html=1;verticalAlign=bottom;endArrow=block;entryX=0;entryY=0;" parent="1" source="oeMKcD0v4NiOrXn6EB73-10" target="oeMKcD0v4NiOrXn6EB73-16" edge="1">
                    <mxGeometry relative="1" as="geometry">
                        <mxPoint x="245" y="1040" as="sourcePoint"/>
                    </mxGeometry>
                </mxCell>
                <mxCell id="oeMKcD0v4NiOrXn6EB73-18" value="return" style="html=1;verticalAlign=bottom;endArrow=open;dashed=1;endSize=8;exitX=0;exitY=0.95;" parent="1" source="oeMKcD0v4NiOrXn6EB73-16" target="oeMKcD0v4NiOrXn6EB73-10" edge="1">
                    <mxGeometry relative="1" as="geometry">
                        <mxPoint x="245" y="1116" as="targetPoint"/>
                    </mxGeometry>
                </mxCell>
                <mxCell id="oeMKcD0v4NiOrXn6EB73-19" value="&lt;p style=&quot;margin: 0px ; margin-top: 4px ; text-align: center&quot;&gt;&lt;i&gt;&amp;lt;&amp;lt;Interface&amp;gt;&amp;gt;&lt;/i&gt;&lt;br&gt;&lt;b&gt;IComponent&lt;/b&gt;&lt;/p&gt;&lt;hr size=&quot;1&quot;&gt;&lt;p style=&quot;margin: 0px ; margin-left: 4px&quot;&gt;&lt;/p&gt;&lt;p style=&quot;margin: 0px ; margin-left: 4px&quot;&gt;+ Operation(): any&lt;br&gt;&lt;/p&gt;" style="verticalAlign=top;align=left;overflow=fill;fontSize=12;fontFamily=Helvetica;html=1;" parent="1" vertex="1">
                    <mxGeometry x="960" y="120" width="160" height="70" as="geometry"/>
                </mxCell>
                <mxCell id="oeMKcD0v4NiOrXn6EB73-20" value=":DecoratorB" style="shape=umlLifeline;perimeter=lifelinePerimeter;whiteSpace=wrap;html=1;container=1;collapsible=0;recursiveResize=0;outlineConnect=0;" parent="1" vertex="1">
                    <mxGeometry x="370" y="120" width="100" height="360" as="geometry"/>
                </mxCell>
                <mxCell id="oeMKcD0v4NiOrXn6EB73-21" value="" style="html=1;points=[];perimeter=orthogonalPerimeter;" parent="oeMKcD0v4NiOrXn6EB73-20" vertex="1">
                    <mxGeometry x="45" y="80" width="10" height="160" as="geometry"/>
                </mxCell>
                <mxCell id="oeMKcD0v4NiOrXn6EB73-22" value="Operation()" style="html=1;verticalAlign=bottom;endArrow=block;" parent="1" source="oeMKcD0v4NiOrXn6EB73-3" target="oeMKcD0v4NiOrXn6EB73-21" edge="1">
                    <mxGeometry relative="1" as="geometry">
                        <mxPoint x="265" y="239.5" as="sourcePoint"/>
                        <mxPoint x="420" y="239.5" as="targetPoint"/>
                        <Array as="points">
                            <mxPoint x="380" y="210"/>
                        </Array>
                    </mxGeometry>
                </mxCell>
                <mxCell id="oeMKcD0v4NiOrXn6EB73-23" value="" style="html=1;points=[];perimeter=orthogonalPerimeter;" parent="1" vertex="1">
                    <mxGeometry x="420" y="300" width="10" height="40" as="geometry"/>
                </mxCell>
                <mxCell id="oeMKcD0v4NiOrXn6EB73-24" value="AddBehaviorB()" style="edgeStyle=orthogonalEdgeStyle;html=1;align=left;spacingLeft=2;endArrow=block;rounded=0;entryX=1;entryY=0;" parent="1" target="oeMKcD0v4NiOrXn6EB73-23" edge="1">
                    <mxGeometry relative="1" as="geometry">
                        <mxPoint x="425" y="280" as="sourcePoint"/>
                        <Array as="points">
                            <mxPoint x="450" y="280"/>
                        </Array>
                    </mxGeometry>
                </mxCell>
                <mxCell id="oeMKcD0v4NiOrXn6EB73-25" value="" style="html=1;points=[];perimeter=orthogonalPerimeter;" parent="1" vertex="1">
                    <mxGeometry x="75" y="200" width="10" height="260" as="geometry"/>
                </mxCell>
                <mxCell id="oeMKcD0v4NiOrXn6EB73-26" value="return" style="html=1;verticalAlign=bottom;endArrow=open;dashed=1;endSize=8;exitX=0.5;exitY=1;exitPerimeter=0;" parent="1" source="oeMKcD0v4NiOrXn6EB73-21" target="oeMKcD0v4NiOrXn6EB73-3" edge="1">
                    <mxGeometry relative="1" as="geometry">
                        <mxPoint x="235" y="380.1379310344828" as="targetPoint"/>
                        <mxPoint x="404.9310344827586" y="380.1379310344828" as="sourcePoint"/>
                    </mxGeometry>
                </mxCell>
                <mxCell id="oeMKcD0v4NiOrXn6EB73-33" value="" style="endArrow=block;dashed=1;endFill=0;endSize=12;html=1;edgeStyle=elbowEdgeStyle;elbow=vertical;rounded=0;" parent="1" source="oeMKcD0v4NiOrXn6EB73-34" target="oeMKcD0v4NiOrXn6EB73-19" edge="1">
                    <mxGeometry width="160" relative="1" as="geometry">
                        <mxPoint x="810" y="280" as="sourcePoint"/>
                        <mxPoint x="1110" y="550" as="targetPoint"/>
                    </mxGeometry>
                </mxCell>
                <mxCell id="oeMKcD0v4NiOrXn6EB73-34" value="&lt;p style=&quot;margin: 0px ; margin-top: 4px ; text-align: center&quot;&gt;&lt;b&gt;ComponentA&lt;/b&gt;&lt;/p&gt;&lt;hr size=&quot;1&quot;&gt;&lt;p style=&quot;margin: 0px ; margin-left: 4px&quot;&gt;&lt;/p&gt;&lt;p style=&quot;margin: 0px ; margin-left: 4px&quot;&gt;+ Operation(): any&lt;/p&gt;" style="verticalAlign=top;align=left;overflow=fill;fontSize=12;fontFamily=Helvetica;html=1;" parent="1" vertex="1">
                    <mxGeometry x="720" y="280" width="140" height="50" as="geometry"/>
                </mxCell>
                <mxCell id="oeMKcD0v4NiOrXn6EB73-37" value="&lt;p style=&quot;margin: 0px ; margin-top: 4px ; text-align: center&quot;&gt;&lt;b&gt;DecoratorA&lt;/b&gt;&lt;/p&gt;&lt;hr size=&quot;1&quot;&gt;&lt;p style=&quot;margin: 0px ; margin-left: 4px&quot;&gt;- component: IComponent&lt;/p&gt;&lt;hr size=&quot;1&quot;&gt;&lt;p style=&quot;margin: 0px ; margin-left: 4px&quot;&gt;+ DecoratorA(component: IComponent)&lt;/p&gt;&lt;p style=&quot;margin: 0px ; margin-left: 4px&quot;&gt;+ Operation(): any&lt;/p&gt;&lt;p style=&quot;margin: 0px ; margin-left: 4px&quot;&gt;- AddBehaviorA()&lt;/p&gt;" style="verticalAlign=top;align=left;overflow=fill;fontSize=12;fontFamily=Helvetica;html=1;" parent="1" vertex="1">
                    <mxGeometry x="920" y="280" width="220" height="110" as="geometry"/>
                </mxCell>
                <mxCell id="oeMKcD0v4NiOrXn6EB73-38" value="&lt;p style=&quot;margin: 0px ; margin-top: 4px ; text-align: center&quot;&gt;&lt;b&gt;DecoratorB&lt;/b&gt;&lt;/p&gt;&lt;hr size=&quot;1&quot;&gt;&lt;p style=&quot;margin: 0px ; margin-left: 4px&quot;&gt;- component: IComponent&lt;/p&gt;&lt;hr size=&quot;1&quot;&gt;&lt;p style=&quot;margin: 0px ; margin-left: 4px&quot;&gt;+ DecoratorB(component: IComponent)&lt;br&gt;&lt;/p&gt;&lt;p style=&quot;margin: 0px ; margin-left: 4px&quot;&gt;+ Operation(): any&lt;/p&gt;&lt;p style=&quot;margin: 0px ; margin-left: 4px&quot;&gt;- AddBehaviorB()&lt;/p&gt;" style="verticalAlign=top;align=left;overflow=fill;fontSize=12;fontFamily=Helvetica;html=1;" parent="1" vertex="1">
                    <mxGeometry x="1180" y="280" width="220" height="110" as="geometry"/>
                </mxCell>
                <mxCell id="oeMKcD0v4NiOrXn6EB73-39" value="" style="endArrow=block;dashed=1;endFill=0;endSize=12;html=1;edgeStyle=elbowEdgeStyle;elbow=vertical;rounded=0;" parent="1" source="oeMKcD0v4NiOrXn6EB73-37" target="oeMKcD0v4NiOrXn6EB73-19" edge="1">
                    <mxGeometry width="160" relative="1" as="geometry">
                        <mxPoint x="810" y="290" as="sourcePoint"/>
                        <mxPoint x="970" y="200" as="targetPoint"/>
                    </mxGeometry>
                </mxCell>
                <mxCell id="oeMKcD0v4NiOrXn6EB73-40" value="" style="endArrow=block;dashed=1;endFill=0;endSize=12;html=1;edgeStyle=elbowEdgeStyle;elbow=vertical;rounded=0;" parent="1" source="oeMKcD0v4NiOrXn6EB73-38" target="oeMKcD0v4NiOrXn6EB73-19" edge="1">
                    <mxGeometry width="160" relative="1" as="geometry">
                        <mxPoint x="820" y="300" as="sourcePoint"/>
                        <mxPoint x="980" y="210" as="targetPoint"/>
                    </mxGeometry>
                </mxCell>
                <mxCell id="oeMKcD0v4NiOrXn6EB73-41" value="" style="endArrow=open;endFill=1;endSize=12;html=1;edgeStyle=elbowEdgeStyle;rounded=0;jumpStyle=gap;jumpSize=12;startSize=14;startArrow=diamondThin;startFill=0;" parent="1" source="oeMKcD0v4NiOrXn6EB73-37" target="oeMKcD0v4NiOrXn6EB73-19" edge="1">
                    <mxGeometry width="160" relative="1" as="geometry">
                        <mxPoint x="1030" y="510" as="sourcePoint"/>
                        <mxPoint x="1190" y="510" as="targetPoint"/>
                        <Array as="points">
                            <mxPoint x="1160" y="209"/>
                        </Array>
                    </mxGeometry>
                </mxCell>
                <mxCell id="oeMKcD0v4NiOrXn6EB73-42" value="" style="endArrow=open;endFill=1;endSize=12;html=1;edgeStyle=elbowEdgeStyle;rounded=0;jumpStyle=gap;jumpSize=12;startArrow=diamondThin;startFill=0;startSize=14;" parent="1" source="oeMKcD0v4NiOrXn6EB73-38" target="oeMKcD0v4NiOrXn6EB73-19" edge="1">
                    <mxGeometry width="160" relative="1" as="geometry">
                        <mxPoint x="1500" y="320" as="sourcePoint"/>
                        <mxPoint x="1470" y="140" as="targetPoint"/>
                        <Array as="points">
                            <mxPoint x="1360" y="220"/>
                            <mxPoint x="1340" y="260"/>
                        </Array>
                    </mxGeometry>
                </mxCell>
                <mxCell id="oeMKcD0v4NiOrXn6EB73-43" value="&lt;p style=&quot;margin: 0px ; margin-top: 4px ; text-align: center&quot;&gt;&lt;i&gt;&amp;lt;&amp;lt;Interface&amp;gt;&amp;gt;&lt;/i&gt;&lt;br&gt;&lt;b&gt;IComponent&lt;/b&gt;&lt;/p&gt;&lt;hr size=&quot;1&quot;&gt;&lt;p style=&quot;margin: 0px ; margin-left: 4px&quot;&gt;&lt;/p&gt;&lt;p style=&quot;margin: 0px ; margin-left: 4px&quot;&gt;+ Operation(): any&lt;br&gt;&lt;/p&gt;" style="verticalAlign=top;align=left;overflow=fill;fontSize=12;fontFamily=Helvetica;html=1;" parent="1" vertex="1">
                    <mxGeometry x="950" y="530" width="160" height="70" as="geometry"/>
                </mxCell>
                <mxCell id="oeMKcD0v4NiOrXn6EB73-44" value="" style="endArrow=block;dashed=1;endFill=0;endSize=12;html=1;edgeStyle=elbowEdgeStyle;elbow=vertical;rounded=0;" parent="1" source="oeMKcD0v4NiOrXn6EB73-45" target="oeMKcD0v4NiOrXn6EB73-43" edge="1">
                    <mxGeometry width="160" relative="1" as="geometry">
                        <mxPoint x="810" y="690" as="sourcePoint"/>
                        <mxPoint x="1110" y="960" as="targetPoint"/>
                    </mxGeometry>
                </mxCell>
                <mxCell id="oeMKcD0v4NiOrXn6EB73-45" value="&lt;p style=&quot;margin: 0px ; margin-top: 4px ; text-align: center&quot;&gt;&lt;b&gt;ComponentA&lt;/b&gt;&lt;/p&gt;&lt;hr size=&quot;1&quot;&gt;&lt;p style=&quot;margin: 0px ; margin-left: 4px&quot;&gt;&lt;/p&gt;&lt;p style=&quot;margin: 0px ; margin-left: 4px&quot;&gt;+ Operation(): any&lt;/p&gt;" style="verticalAlign=top;align=left;overflow=fill;fontSize=12;fontFamily=Helvetica;html=1;" parent="1" vertex="1">
                    <mxGeometry x="720" y="690" width="140" height="50" as="geometry"/>
                </mxCell>
                <mxCell id="oeMKcD0v4NiOrXn6EB73-46" value="&lt;p style=&quot;margin: 0px ; margin-top: 4px ; text-align: center&quot;&gt;&lt;b&gt;DecoratorA&lt;/b&gt;&lt;/p&gt;&lt;hr size=&quot;1&quot;&gt;&lt;p style=&quot;margin: 0px ; margin-left: 4px&quot;&gt;- component: IComponent&lt;/p&gt;&lt;hr size=&quot;1&quot;&gt;&lt;p style=&quot;margin: 0px ; margin-left: 4px&quot;&gt;+ DecoratorA(component: IComponent)&lt;/p&gt;&lt;p style=&quot;margin: 0px ; margin-left: 4px&quot;&gt;+ Operation(): any&lt;/p&gt;" style="verticalAlign=top;align=left;overflow=fill;fontSize=12;fontFamily=Helvetica;html=1;" parent="1" vertex="1">
                    <mxGeometry x="920" y="690" width="220" height="90" as="geometry"/>
                </mxCell>
                <mxCell id="oeMKcD0v4NiOrXn6EB73-48" value="" style="endArrow=block;dashed=1;endFill=0;endSize=12;html=1;edgeStyle=elbowEdgeStyle;elbow=vertical;rounded=0;" parent="1" source="oeMKcD0v4NiOrXn6EB73-46" target="oeMKcD0v4NiOrXn6EB73-43" edge="1">
                    <mxGeometry width="160" relative="1" as="geometry">
                        <mxPoint x="810" y="700" as="sourcePoint"/>
                        <mxPoint x="970" y="610" as="targetPoint"/>
                    </mxGeometry>
                </mxCell>
                <mxCell id="oeMKcD0v4NiOrXn6EB73-52" value="Client" style="html=1;" parent="1" vertex="1">
                    <mxGeometry x="720" y="540" width="110" height="50" as="geometry"/>
                </mxCell>
                <mxCell id="oeMKcD0v4NiOrXn6EB73-56" value="" style="endArrow=open;html=1;endSize=12;startArrow=diamondThin;startSize=14;startFill=0;edgeStyle=orthogonalEdgeStyle;align=left;verticalAlign=bottom;rounded=0;" parent="1" source="oeMKcD0v4NiOrXn6EB73-46" target="oeMKcD0v4NiOrXn6EB73-43" edge="1">
                    <mxGeometry x="-0.6667" y="25" relative="1" as="geometry">
                        <mxPoint x="1330" y="620" as="sourcePoint"/>
                        <mxPoint x="1350" y="860" as="targetPoint"/>
                        <Array as="points">
                            <mxPoint x="1180" y="735"/>
                            <mxPoint x="1180" y="565"/>
                        </Array>
                        <mxPoint x="45" y="-15" as="offset"/>
                    </mxGeometry>
                </mxCell>
                <mxCell id="oeMKcD0v4NiOrXn6EB73-57" value="" style="endArrow=open;html=1;endSize=12;startArrow=none;startSize=14;startFill=0;align=left;verticalAlign=bottom;" parent="1" source="oeMKcD0v4NiOrXn6EB73-52" target="oeMKcD0v4NiOrXn6EB73-43" edge="1">
                    <mxGeometry x="-0.3457" y="16" relative="1" as="geometry">
                        <mxPoint x="850" y="554.5" as="sourcePoint"/>
                        <mxPoint x="910" y="500" as="targetPoint"/>
                        <mxPoint as="offset"/>
                    </mxGeometry>
                </mxCell>
                <mxCell id="oeMKcD0v4NiOrXn6EB73-58" value="Client" style="html=1;" parent="1" vertex="1">
                    <mxGeometry x="720" y="130" width="110" height="50" as="geometry"/>
                </mxCell>
                <mxCell id="oeMKcD0v4NiOrXn6EB73-59" value="" style="endArrow=open;html=1;endSize=12;startArrow=none;startSize=14;startFill=0;align=left;verticalAlign=bottom;" parent="1" source="oeMKcD0v4NiOrXn6EB73-58" target="oeMKcD0v4NiOrXn6EB73-19" edge="1">
                    <mxGeometry x="-0.3457" y="16" relative="1" as="geometry">
                        <mxPoint x="850" y="134.5" as="sourcePoint"/>
                        <mxPoint x="950" y="145" as="targetPoint"/>
                        <mxPoint as="offset"/>
                    </mxGeometry>
                </mxCell>
                <mxCell id="oeMKcD0v4NiOrXn6EB73-60" value="&lt;p style=&quot;margin: 0px ; margin-top: 4px ; text-align: center&quot;&gt;&lt;i&gt;&amp;lt;&amp;lt;Interface&amp;gt;&amp;gt;&lt;/i&gt;&lt;br&gt;&lt;b&gt;IComponent&lt;/b&gt;&lt;/p&gt;&lt;hr size=&quot;1&quot;&gt;&lt;p style=&quot;margin: 0px ; margin-left: 4px&quot;&gt;&lt;/p&gt;&lt;p style=&quot;margin: 0px ; margin-left: 4px&quot;&gt;+ Operation(): any&lt;br&gt;&lt;/p&gt;" style="verticalAlign=top;align=left;overflow=fill;fontSize=12;fontFamily=Helvetica;html=1;" parent="1" vertex="1">
                    <mxGeometry x="950" y="940" width="160" height="70" as="geometry"/>
                </mxCell>
                <mxCell id="oeMKcD0v4NiOrXn6EB73-61" value="" style="endArrow=block;dashed=1;endFill=0;endSize=12;html=1;edgeStyle=elbowEdgeStyle;elbow=vertical;rounded=0;" parent="1" source="oeMKcD0v4NiOrXn6EB73-62" target="oeMKcD0v4NiOrXn6EB73-60" edge="1">
                    <mxGeometry width="160" relative="1" as="geometry">
                        <mxPoint x="810" y="1100" as="sourcePoint"/>
                        <mxPoint x="1110" y="1370" as="targetPoint"/>
                    </mxGeometry>
                </mxCell>
                <mxCell id="oeMKcD0v4NiOrXn6EB73-62" value="&lt;p style=&quot;margin: 0px ; margin-top: 4px ; text-align: center&quot;&gt;&lt;b&gt;ComponentA&lt;/b&gt;&lt;/p&gt;&lt;hr size=&quot;1&quot;&gt;&lt;p style=&quot;margin: 0px ; margin-left: 4px&quot;&gt;&lt;/p&gt;&lt;p style=&quot;margin: 0px ; margin-left: 4px&quot;&gt;+ Operation(): any&lt;/p&gt;" style="verticalAlign=top;align=left;overflow=fill;fontSize=12;fontFamily=Helvetica;html=1;" parent="1" vertex="1">
                    <mxGeometry x="960" y="1080" width="140" height="50" as="geometry"/>
                </mxCell>
                <mxCell id="oeMKcD0v4NiOrXn6EB73-65" value="Client" style="html=1;" parent="1" vertex="1">
                    <mxGeometry x="720" y="950" width="110" height="50" as="geometry"/>
                </mxCell>
                <mxCell id="oeMKcD0v4NiOrXn6EB73-67" value="" style="endArrow=open;html=1;endSize=12;startArrow=none;startSize=14;startFill=0;align=left;verticalAlign=bottom;" parent="1" source="oeMKcD0v4NiOrXn6EB73-65" target="oeMKcD0v4NiOrXn6EB73-60" edge="1">
                    <mxGeometry x="-0.3457" y="16" relative="1" as="geometry">
                        <mxPoint x="850" y="964.5" as="sourcePoint"/>
                        <mxPoint x="910" y="910" as="targetPoint"/>
                        <mxPoint as="offset"/>
                    </mxGeometry>
                </mxCell>
                <mxCell id="oeMKcD0v4NiOrXn6EB73-68" value="" style="shape=umlLifeline;participant=umlActor;perimeter=lifelinePerimeter;whiteSpace=wrap;html=1;container=1;collapsible=0;recursiveResize=0;verticalAlign=top;spacingTop=36;labelBackgroundColor=#ffffff;outlineConnect=0;" parent="1" vertex="1">
                    <mxGeometry x="70" y="530" width="20" height="270" as="geometry"/>
                </mxCell>
                <mxCell id="oeMKcD0v4NiOrXn6EB73-69" value=":DecoratorA" style="shape=umlLifeline;perimeter=lifelinePerimeter;whiteSpace=wrap;html=1;container=1;collapsible=0;recursiveResize=0;outlineConnect=0;" parent="1" vertex="1">
                    <mxGeometry x="190" y="530" width="100" height="270" as="geometry"/>
                </mxCell>
                <mxCell id="oeMKcD0v4NiOrXn6EB73-70" value="" style="html=1;points=[];perimeter=orthogonalPerimeter;" parent="oeMKcD0v4NiOrXn6EB73-69" vertex="1">
                    <mxGeometry x="45" y="80" width="10" height="160" as="geometry"/>
                </mxCell>
                <mxCell id="oeMKcD0v4NiOrXn6EB73-71" value="" style="html=1;points=[];perimeter=orthogonalPerimeter;" parent="oeMKcD0v4NiOrXn6EB73-69" vertex="1">
                    <mxGeometry x="50" y="185" width="10" height="40" as="geometry"/>
                </mxCell>
                <mxCell id="oeMKcD0v4NiOrXn6EB73-72" value="AddBehaviorA()" style="edgeStyle=orthogonalEdgeStyle;html=1;align=left;spacingLeft=2;endArrow=block;rounded=0;entryX=1;entryY=0;" parent="oeMKcD0v4NiOrXn6EB73-69" target="oeMKcD0v4NiOrXn6EB73-71" edge="1">
                    <mxGeometry relative="1" as="geometry">
                        <mxPoint x="55" y="165" as="sourcePoint"/>
                        <Array as="points">
                            <mxPoint x="80" y="165"/>
                        </Array>
                    </mxGeometry>
                </mxCell>
                <mxCell id="oeMKcD0v4NiOrXn6EB73-73" value="Operation()" style="html=1;verticalAlign=bottom;endArrow=block;entryX=0;entryY=0;" parent="1" source="oeMKcD0v4NiOrXn6EB73-84" target="oeMKcD0v4NiOrXn6EB73-70" edge="1">
                    <mxGeometry relative="1" as="geometry">
                        <mxPoint x="80" y="610" as="sourcePoint"/>
                    </mxGeometry>
                </mxCell>
                <mxCell id="oeMKcD0v4NiOrXn6EB73-74" value="return" style="html=1;verticalAlign=bottom;endArrow=open;dashed=1;endSize=8;exitX=-0.007;exitY=0.999;exitPerimeter=0;" parent="1" source="oeMKcD0v4NiOrXn6EB73-70" target="oeMKcD0v4NiOrXn6EB73-84" edge="1">
                    <mxGeometry relative="1" as="geometry">
                        <mxPoint x="80" y="686" as="targetPoint"/>
                        <mxPoint x="235" y="870" as="sourcePoint"/>
                    </mxGeometry>
                </mxCell>
                <mxCell id="oeMKcD0v4NiOrXn6EB73-75" value=":ComponentA" style="shape=umlLifeline;perimeter=lifelinePerimeter;whiteSpace=wrap;html=1;container=1;collapsible=0;recursiveResize=0;outlineConnect=0;" parent="1" vertex="1">
                    <mxGeometry x="370" y="530" width="100" height="270" as="geometry"/>
                </mxCell>
                <mxCell id="oeMKcD0v4NiOrXn6EB73-76" value="" style="html=1;points=[];perimeter=orthogonalPerimeter;" parent="oeMKcD0v4NiOrXn6EB73-75" vertex="1">
                    <mxGeometry x="45" y="100" width="10" height="40" as="geometry"/>
                </mxCell>
                <mxCell id="oeMKcD0v4NiOrXn6EB73-77" value="Operation()" style="html=1;verticalAlign=bottom;endArrow=block;entryX=0;entryY=0;" parent="1" source="oeMKcD0v4NiOrXn6EB73-70" target="oeMKcD0v4NiOrXn6EB73-76" edge="1">
                    <mxGeometry relative="1" as="geometry">
                        <mxPoint x="425" y="630" as="sourcePoint"/>
                    </mxGeometry>
                </mxCell>
                <mxCell id="oeMKcD0v4NiOrXn6EB73-78" value="return" style="html=1;verticalAlign=bottom;endArrow=open;dashed=1;endSize=8;exitX=0;exitY=0.95;" parent="1" source="oeMKcD0v4NiOrXn6EB73-76" target="oeMKcD0v4NiOrXn6EB73-70" edge="1">
                    <mxGeometry relative="1" as="geometry">
                        <mxPoint x="425" y="668" as="targetPoint"/>
                    </mxGeometry>
                </mxCell>
                <mxCell id="oeMKcD0v4NiOrXn6EB73-84" value="" style="html=1;points=[];perimeter=orthogonalPerimeter;" parent="1" vertex="1">
                    <mxGeometry x="75" y="610" width="10" height="170" as="geometry"/>
                </mxCell>
                <mxCell id="2" value="" style="endArrow=none;html=1;" edge="1" parent="1">
                    <mxGeometry width="50" height="50" relative="1" as="geometry">
                        <mxPoint x="-70" y="60" as="sourcePoint"/>
                        <mxPoint x="-20" y="10" as="targetPoint"/>
                    </mxGeometry>
                </mxCell>
                <mxCell id="3" value="" style="endArrow=none;html=1;" edge="1" parent="1">
                    <mxGeometry width="50" height="50" relative="1" as="geometry">
                        <mxPoint x="1520" y="1330" as="sourcePoint"/>
                        <mxPoint x="1570" y="1280" as="targetPoint"/>
                    </mxGeometry>
                </mxCell>
            </root>
        </mxGraphModel>
    </diagram>
    <diagram id="2J-5fiMxYoIZzhKMI9SU" name="Adapter">
        <mxGraphModel dx="1324" dy="919" grid="1" gridSize="10" guides="1" tooltips="1" connect="1" arrows="1" fold="1" page="0" pageScale="1" pageWidth="850" pageHeight="1100" math="0" shadow="0">
            <root>
                <mxCell id="cO7851tfKmzUKqTeVgMp-0"/>
                <mxCell id="cO7851tfKmzUKqTeVgMp-1" parent="cO7851tfKmzUKqTeVgMp-0"/>
                <mxCell id="cO7851tfKmzUKqTeVgMp-2" value="Client" style="html=1;" parent="cO7851tfKmzUKqTeVgMp-1" vertex="1">
                    <mxGeometry x="130" y="130.5" width="110" height="50" as="geometry"/>
                </mxCell>
                <mxCell id="cO7851tfKmzUKqTeVgMp-11" value="Adaptee" style="swimlane;fontStyle=0;childLayout=stackLayout;horizontal=1;startSize=26;fillColor=default;horizontalStack=0;resizeParent=1;resizeParentMax=0;resizeLast=0;collapsible=1;marginBottom=0;strokeColor=default;" parent="cO7851tfKmzUKqTeVgMp-1" vertex="1">
                    <mxGeometry x="480" y="276" width="160" height="52" as="geometry"/>
                </mxCell>
                <mxCell id="cO7851tfKmzUKqTeVgMp-12" value="+SomeMethod(): any" style="text;strokeColor=default;fillColor=default;align=left;verticalAlign=top;spacingLeft=4;spacingRight=4;overflow=hidden;rotatable=0;points=[[0,0.5],[1,0.5]];portConstraint=eastwest;" parent="cO7851tfKmzUKqTeVgMp-11" vertex="1">
                    <mxGeometry y="26" width="160" height="26" as="geometry"/>
                </mxCell>
                <mxCell id="cO7851tfKmzUKqTeVgMp-15" value="&lt;p style=&quot;margin: 0px ; margin-top: 4px ; text-align: center&quot;&gt;&lt;i&gt;&amp;lt;&amp;lt;Interface&amp;gt;&amp;gt;&lt;/i&gt;&lt;br&gt;&lt;b&gt;ITarget&lt;/b&gt;&lt;/p&gt;&lt;hr size=&quot;1&quot;&gt;&lt;p style=&quot;margin: 0px ; margin-left: 4px&quot;&gt;&lt;/p&gt;&lt;p style=&quot;margin: 0px ; margin-left: 4px&quot;&gt;+Operation(): any&lt;br&gt;&lt;/p&gt;" style="verticalAlign=top;align=left;overflow=fill;fontSize=12;fontFamily=Helvetica;html=1;" parent="cO7851tfKmzUKqTeVgMp-1" vertex="1">
                    <mxGeometry x="280" y="120" width="160" height="71" as="geometry"/>
                </mxCell>
                <mxCell id="cO7851tfKmzUKqTeVgMp-19" value="" style="endArrow=diamondThin;endFill=0;endSize=14;html=1;entryX=1;entryY=0.5;edgeStyle=orthogonalEdgeStyle;rounded=0;exitX=0;exitY=0.25;" parent="cO7851tfKmzUKqTeVgMp-1" source="cO7851tfKmzUKqTeVgMp-11" target="cO7851tfKmzUKqTeVgMp-23" edge="1">
                    <mxGeometry width="160" relative="1" as="geometry">
                        <mxPoint x="560" y="340" as="sourcePoint"/>
                        <mxPoint x="690" y="390" as="targetPoint"/>
                    </mxGeometry>
                </mxCell>
                <mxCell id="cO7851tfKmzUKqTeVgMp-20" value="" style="endArrow=diamondThin;endFill=0;endSize=14;html=1;" parent="cO7851tfKmzUKqTeVgMp-1" source="cO7851tfKmzUKqTeVgMp-15" target="cO7851tfKmzUKqTeVgMp-2" edge="1">
                    <mxGeometry width="160" relative="1" as="geometry">
                        <mxPoint x="220" y="600" as="sourcePoint"/>
                        <mxPoint x="380" y="600" as="targetPoint"/>
                    </mxGeometry>
                </mxCell>
                <mxCell id="cO7851tfKmzUKqTeVgMp-21" value="" style="endArrow=block;dashed=1;endFill=0;endSize=12;html=1;" parent="cO7851tfKmzUKqTeVgMp-1" source="cO7851tfKmzUKqTeVgMp-22" target="cO7851tfKmzUKqTeVgMp-15" edge="1">
                    <mxGeometry width="160" relative="1" as="geometry">
                        <mxPoint x="440" y="630" as="sourcePoint"/>
                        <mxPoint x="600" y="630" as="targetPoint"/>
                    </mxGeometry>
                </mxCell>
                <mxCell id="cO7851tfKmzUKqTeVgMp-22" value="Adapter" style="swimlane;fontStyle=1;align=center;verticalAlign=top;childLayout=stackLayout;horizontal=1;startSize=26;horizontalStack=0;resizeParent=1;resizeParentMax=0;resizeLast=0;collapsible=1;marginBottom=0;fillColor=default;strokeColor=default;swimlaneFillColor=default;" parent="cO7851tfKmzUKqTeVgMp-1" vertex="1">
                    <mxGeometry x="280" y="250" width="160" height="78" as="geometry"/>
                </mxCell>
                <mxCell id="cO7851tfKmzUKqTeVgMp-23" value="-adaptee: Adaptee" style="text;strokeColor=default;fillColor=default;align=left;verticalAlign=top;spacingLeft=4;spacingRight=4;overflow=hidden;rotatable=0;points=[[0,0.5],[1,0.5]];portConstraint=eastwest;" parent="cO7851tfKmzUKqTeVgMp-22" vertex="1">
                    <mxGeometry y="26" width="160" height="26" as="geometry"/>
                </mxCell>
                <mxCell id="cO7851tfKmzUKqTeVgMp-8" value="+ Operation(): any" style="text;strokeColor=default;fillColor=default;align=left;verticalAlign=top;spacingLeft=4;spacingRight=4;overflow=hidden;rotatable=0;points=[[0,0.5],[1,0.5]];portConstraint=eastwest;" parent="cO7851tfKmzUKqTeVgMp-22" vertex="1">
                    <mxGeometry y="52" width="160" height="26" as="geometry"/>
                </mxCell>
                <mxCell id="cO7851tfKmzUKqTeVgMp-26" value="Client" style="html=1;" parent="cO7851tfKmzUKqTeVgMp-1" vertex="1">
                    <mxGeometry x="130" y="470.5" width="110" height="50" as="geometry"/>
                </mxCell>
                <mxCell id="cO7851tfKmzUKqTeVgMp-27" value="Adaptee" style="swimlane;fontStyle=0;childLayout=stackLayout;horizontal=1;startSize=26;fillColor=default;horizontalStack=0;resizeParent=1;resizeParentMax=0;resizeLast=0;collapsible=1;marginBottom=0;strokeColor=default;" parent="cO7851tfKmzUKqTeVgMp-1" vertex="1">
                    <mxGeometry x="480" y="460" width="160" height="52" as="geometry"/>
                </mxCell>
                <mxCell id="cO7851tfKmzUKqTeVgMp-28" value="#SomeMethod(): any" style="text;strokeColor=default;fillColor=default;align=left;verticalAlign=top;spacingLeft=4;spacingRight=4;overflow=hidden;rotatable=0;points=[[0,0.5],[1,0.5]];portConstraint=eastwest;" parent="cO7851tfKmzUKqTeVgMp-27" vertex="1">
                    <mxGeometry y="26" width="160" height="26" as="geometry"/>
                </mxCell>
                <mxCell id="cO7851tfKmzUKqTeVgMp-29" value="&lt;p style=&quot;margin: 0px ; margin-top: 4px ; text-align: center&quot;&gt;&lt;i&gt;&amp;lt;&amp;lt;Interface&amp;gt;&amp;gt;&lt;/i&gt;&lt;br&gt;&lt;b&gt;ITarget&lt;/b&gt;&lt;/p&gt;&lt;hr size=&quot;1&quot;&gt;&lt;p style=&quot;margin: 0px ; margin-left: 4px&quot;&gt;&lt;/p&gt;&lt;p style=&quot;margin: 0px ; margin-left: 4px&quot;&gt;+Operation(): any&lt;br&gt;&lt;/p&gt;" style="verticalAlign=top;align=left;overflow=fill;fontSize=12;fontFamily=Helvetica;html=1;strokeColor=default;fillColor=default;perimeterSpacing=0;" parent="cO7851tfKmzUKqTeVgMp-1" vertex="1">
                    <mxGeometry x="280" y="460" width="160" height="71" as="geometry"/>
                </mxCell>
                <mxCell id="cO7851tfKmzUKqTeVgMp-31" value="" style="endArrow=diamondThin;endFill=0;endSize=14;html=1;" parent="cO7851tfKmzUKqTeVgMp-1" source="cO7851tfKmzUKqTeVgMp-29" target="cO7851tfKmzUKqTeVgMp-26" edge="1">
                    <mxGeometry width="160" relative="1" as="geometry">
                        <mxPoint x="220" y="940" as="sourcePoint"/>
                        <mxPoint x="380" y="940" as="targetPoint"/>
                    </mxGeometry>
                </mxCell>
                <mxCell id="cO7851tfKmzUKqTeVgMp-32" value="" style="endArrow=block;dashed=1;endFill=0;endSize=12;html=1;edgeStyle=orthogonalEdgeStyle;rounded=0;exitX=0.25;exitY=0;" parent="cO7851tfKmzUKqTeVgMp-1" source="cO7851tfKmzUKqTeVgMp-33" target="cO7851tfKmzUKqTeVgMp-29" edge="1">
                    <mxGeometry width="160" relative="1" as="geometry">
                        <mxPoint x="440" y="970" as="sourcePoint"/>
                        <mxPoint x="600" y="970" as="targetPoint"/>
                        <Array as="points">
                            <mxPoint x="410" y="580"/>
                            <mxPoint x="360" y="580"/>
                        </Array>
                    </mxGeometry>
                </mxCell>
                <mxCell id="cO7851tfKmzUKqTeVgMp-33" value="Adapter" style="swimlane;fontStyle=1;align=center;verticalAlign=top;childLayout=stackLayout;horizontal=1;startSize=26;horizontalStack=0;resizeParent=1;resizeParentMax=0;resizeLast=0;collapsible=1;marginBottom=0;fillColor=default;strokeColor=default;swimlaneFillColor=default;" parent="cO7851tfKmzUKqTeVgMp-1" vertex="1">
                    <mxGeometry x="370" y="599" width="160" height="52" as="geometry"/>
                </mxCell>
                <mxCell id="cO7851tfKmzUKqTeVgMp-36" value="+Operation(): any" style="text;strokeColor=default;fillColor=default;align=left;verticalAlign=top;spacingLeft=4;spacingRight=4;overflow=hidden;rotatable=0;points=[[0,0.5],[1,0.5]];portConstraint=eastwest;" parent="cO7851tfKmzUKqTeVgMp-33" vertex="1">
                    <mxGeometry y="26" width="160" height="26" as="geometry"/>
                </mxCell>
                <mxCell id="cO7851tfKmzUKqTeVgMp-37" value="" style="endArrow=block;endSize=16;endFill=0;html=1;edgeStyle=orthogonalEdgeStyle;rounded=0;exitX=0.75;exitY=0;" parent="cO7851tfKmzUKqTeVgMp-1" source="cO7851tfKmzUKqTeVgMp-33" target="cO7851tfKmzUKqTeVgMp-27" edge="1">
                    <mxGeometry width="160" relative="1" as="geometry">
                        <mxPoint x="410" y="840" as="sourcePoint"/>
                        <mxPoint x="570" y="840" as="targetPoint"/>
                        <Array as="points">
                            <mxPoint x="490" y="580"/>
                            <mxPoint x="560" y="580"/>
                        </Array>
                    </mxGeometry>
                </mxCell>
                <mxCell id="cO7851tfKmzUKqTeVgMp-3" style="rounded=0;html=1;entryX=0;entryY=0.5;endArrow=none;endFill=0;endSize=14;jettySize=auto;orthogonalLoop=1;dashed=1;" parent="cO7851tfKmzUKqTeVgMp-1" source="cO7851tfKmzUKqTeVgMp-38" target="cO7851tfKmzUKqTeVgMp-36" edge="1">
                    <mxGeometry relative="1" as="geometry"/>
                </mxCell>
                <mxCell id="cO7851tfKmzUKqTeVgMp-38" value="Calls base.SomeMethod()" style="shape=note;whiteSpace=wrap;html=1;size=14;verticalAlign=middle;align=left;spacingTop=-6;fillColor=default;" parent="cO7851tfKmzUKqTeVgMp-1" vertex="1">
                    <mxGeometry x="170" y="570" width="170" height="30" as="geometry"/>
                </mxCell>
                <mxCell id="cO7851tfKmzUKqTeVgMp-4" style="rounded=0;html=1;endArrow=none;endFill=0;endSize=14;jettySize=auto;orthogonalLoop=1;dashed=1;entryX=0;entryY=0.5;" parent="cO7851tfKmzUKqTeVgMp-1" source="cO7851tfKmzUKqTeVgMp-5" target="cO7851tfKmzUKqTeVgMp-8" edge="1">
                    <mxGeometry relative="1" as="geometry">
                        <mxPoint x="275" y="260" as="targetPoint"/>
                    </mxGeometry>
                </mxCell>
                <mxCell id="cO7851tfKmzUKqTeVgMp-5" value="Calls adaptee.SomeMethod()" style="shape=note;whiteSpace=wrap;html=1;size=14;verticalAlign=middle;align=left;spacingTop=-6;fillColor=default;" parent="cO7851tfKmzUKqTeVgMp-1" vertex="1">
                    <mxGeometry x="130" y="210" width="180" height="30" as="geometry"/>
                </mxCell>
                <mxCell id="cO7851tfKmzUKqTeVgMp-6" value=":greeter" style="shape=umlLifeline;perimeter=lifelinePerimeter;whiteSpace=wrap;html=1;container=1;collapsible=0;recursiveResize=0;outlineConnect=0;fillColor=default;" parent="cO7851tfKmzUKqTeVgMp-1" vertex="1">
                    <mxGeometry x="1130" y="100" width="100" height="180" as="geometry"/>
                </mxCell>
                <mxCell id="cO7851tfKmzUKqTeVgMp-10" value="" style="html=1;points=[];perimeter=orthogonalPerimeter;fillColor=default;" parent="cO7851tfKmzUKqTeVgMp-6" vertex="1">
                    <mxGeometry x="45" y="70" width="10" height="80" as="geometry"/>
                </mxCell>
                <mxCell id="cO7851tfKmzUKqTeVgMp-7" value="" style="shape=umlLifeline;participant=umlActor;perimeter=lifelinePerimeter;whiteSpace=wrap;html=1;container=1;collapsible=0;recursiveResize=0;verticalAlign=top;spacingTop=36;labelBackgroundColor=#ffffff;outlineConnect=0;fillColor=default;" parent="cO7851tfKmzUKqTeVgMp-1" vertex="1">
                    <mxGeometry x="900" y="100" width="20" height="180" as="geometry"/>
                </mxCell>
                <mxCell id="cO7851tfKmzUKqTeVgMp-9" value=":adaptee" style="shape=umlLifeline;perimeter=lifelinePerimeter;whiteSpace=wrap;html=1;container=1;collapsible=0;recursiveResize=0;outlineConnect=0;fillColor=default;" parent="cO7851tfKmzUKqTeVgMp-1" vertex="1">
                    <mxGeometry x="1400" y="100" width="100" height="180" as="geometry"/>
                </mxCell>
                <mxCell id="cO7851tfKmzUKqTeVgMp-16" value="" style="html=1;points=[];perimeter=orthogonalPerimeter;fillColor=default;" parent="cO7851tfKmzUKqTeVgMp-9" vertex="1">
                    <mxGeometry x="45" y="80" width="10" height="50" as="geometry"/>
                </mxCell>
                <mxCell id="cO7851tfKmzUKqTeVgMp-13" value="Greeting()" style="html=1;verticalAlign=bottom;endArrow=block;entryX=0;entryY=0;" parent="cO7851tfKmzUKqTeVgMp-1" source="cO7851tfKmzUKqTeVgMp-7" target="cO7851tfKmzUKqTeVgMp-10" edge="1">
                    <mxGeometry relative="1" as="geometry">
                        <mxPoint x="1005" y="170" as="sourcePoint"/>
                    </mxGeometry>
                </mxCell>
                <mxCell id="cO7851tfKmzUKqTeVgMp-17" value="GreetByName(&quot;ExternalGreeterAdapter&quot;)" style="html=1;verticalAlign=bottom;endArrow=block;entryX=0;entryY=0;" parent="cO7851tfKmzUKqTeVgMp-1" source="cO7851tfKmzUKqTeVgMp-10" target="cO7851tfKmzUKqTeVgMp-16" edge="1">
                    <mxGeometry relative="1" as="geometry">
                        <mxPoint x="1215" y="170" as="sourcePoint"/>
                    </mxGeometry>
                </mxCell>
                <mxCell id="cO7851tfKmzUKqTeVgMp-18" value="return &quot;Adaptee says: hi ExternalGreeterAdapter&quot;" style="html=1;verticalAlign=bottom;endArrow=open;dashed=1;endSize=8;exitX=0;exitY=0.95;" parent="cO7851tfKmzUKqTeVgMp-1" source="cO7851tfKmzUKqTeVgMp-16" target="cO7851tfKmzUKqTeVgMp-10" edge="1">
                    <mxGeometry relative="1" as="geometry">
                        <mxPoint x="1215" y="246" as="targetPoint"/>
                    </mxGeometry>
                </mxCell>
                <mxCell id="cO7851tfKmzUKqTeVgMp-14" value="return &quot;Adaptee says: hi ExternalGreeterAdapter&quot;" style="html=1;verticalAlign=bottom;endArrow=open;dashed=1;endSize=8;exitX=0;exitY=0.95;" parent="cO7851tfKmzUKqTeVgMp-1" source="cO7851tfKmzUKqTeVgMp-10" target="cO7851tfKmzUKqTeVgMp-7" edge="1">
                    <mxGeometry relative="1" as="geometry">
                        <mxPoint x="1005" y="246" as="targetPoint"/>
                    </mxGeometry>
                </mxCell>
                <mxCell id="LAPjOBc9VVUufAzVMqx_-0" value="" style="endArrow=none;html=1;rounded=0;endSize=6;" parent="cO7851tfKmzUKqTeVgMp-1" edge="1">
                    <mxGeometry width="50" height="50" relative="1" as="geometry">
                        <mxPoint x="1470" y="-110" as="sourcePoint"/>
                        <mxPoint x="1670" y="80" as="targetPoint"/>
                    </mxGeometry>
                </mxCell>
                <mxCell id="LAPjOBc9VVUufAzVMqx_-1" value="" style="endArrow=none;html=1;rounded=0;endSize=6;" parent="cO7851tfKmzUKqTeVgMp-1" edge="1">
                    <mxGeometry width="50" height="50" relative="1" as="geometry">
                        <mxPoint x="90" y="800" as="sourcePoint"/>
                        <mxPoint x="-50" y="600" as="targetPoint"/>
                    </mxGeometry>
                </mxCell>
                <mxCell id="qCdh2LfJtxK6R20RHsox-0" value="600 px MAX width" style="rounded=0;whiteSpace=wrap;html=1;sketch=0;fontSize=12;align=center;fontStyle=1" vertex="1" parent="cO7851tfKmzUKqTeVgMp-1">
                    <mxGeometry x="120" y="40" width="600" height="40" as="geometry"/>
                </mxCell>
                <mxCell id="qCdh2LfJtxK6R20RHsox-1" value="600 px MAX width" style="rounded=0;whiteSpace=wrap;html=1;sketch=0;fontSize=12;align=center;fontStyle=1" vertex="1" parent="cO7851tfKmzUKqTeVgMp-1">
                    <mxGeometry x="900" y="40" width="600" height="40" as="geometry"/>
                </mxCell>
            </root>
        </mxGraphModel>
    </diagram>
    <diagram id="QP4YSMfWckQZliHUiOLJ" name="Façade">
        <mxGraphModel dx="1317" dy="1142" grid="1" gridSize="10" guides="1" tooltips="1" connect="1" arrows="1" fold="1" page="0" pageScale="1" pageWidth="850" pageHeight="1100" math="0" shadow="0">
            <root>
                <mxCell id="cO7851tfKmzUKqTeVgMp-0"/>
                <mxCell id="cO7851tfKmzUKqTeVgMp-1" value="Package" style="" parent="cO7851tfKmzUKqTeVgMp-0"/>
                <mxCell id="cO7851tfKmzUKqTeVgMp-31" value="MySubSystem" style="shape=folder;xSize=90;align=left;spacingLeft=10;align=left;verticalAlign=top;spacingLeft=5;spacingTop=-4;tabWidth=94;tabHeight=20;tabPosition=left;html=1;strokeWidth=1;recursiveResize=0;fillColor=default;" parent="cO7851tfKmzUKqTeVgMp-1" vertex="1">
                    <mxGeometry x="460" y="120" width="290" height="340" as="geometry"/>
                </mxCell>
                <mxCell id="lKcURt1Z8BjD_Hxy5tit-2" value="" style="shape=umlLifeline;participant=umlActor;perimeter=lifelinePerimeter;whiteSpace=wrap;html=1;container=1;collapsible=0;recursiveResize=0;verticalAlign=top;spacingTop=36;labelBackgroundColor=none;outlineConnect=0;fillColor=default;align=center;fontColor=default;strokeColor=default;" parent="cO7851tfKmzUKqTeVgMp-1" vertex="1">
                    <mxGeometry x="920" y="160" width="20" height="270" as="geometry"/>
                </mxCell>
                <mxCell id="lKcURt1Z8BjD_Hxy5tit-1" value="" style="html=1;points=[];perimeter=orthogonalPerimeter;" parent="lKcURt1Z8BjD_Hxy5tit-2" vertex="1">
                    <mxGeometry x="5" y="60" width="10" height="200" as="geometry"/>
                </mxCell>
                <mxCell id="lKcURt1Z8BjD_Hxy5tit-3" value=":Façade" style="shape=umlLifeline;perimeter=lifelinePerimeter;whiteSpace=wrap;html=1;container=1;collapsible=0;recursiveResize=0;outlineConnect=0;fillColor=default;align=center;labelBackgroundColor=none;fontColor=default;strokeColor=default;" parent="cO7851tfKmzUKqTeVgMp-1" vertex="1">
                    <mxGeometry x="1000" y="160" width="100" height="270" as="geometry"/>
                </mxCell>
                <mxCell id="lKcURt1Z8BjD_Hxy5tit-7" value="" style="html=1;points=[];perimeter=orthogonalPerimeter;" parent="lKcURt1Z8BjD_Hxy5tit-3" vertex="1">
                    <mxGeometry x="45" y="70" width="10" height="180" as="geometry"/>
                </mxCell>
                <mxCell id="lKcURt1Z8BjD_Hxy5tit-4" value=":Class1" style="shape=umlLifeline;perimeter=lifelinePerimeter;whiteSpace=wrap;html=1;container=1;collapsible=0;recursiveResize=0;outlineConnect=0;fillColor=default;align=center;labelBackgroundColor=none;fontColor=default;strokeColor=default;" parent="cO7851tfKmzUKqTeVgMp-1" vertex="1">
                    <mxGeometry x="1120" y="160" width="100" height="270" as="geometry"/>
                </mxCell>
                <mxCell id="lKcURt1Z8BjD_Hxy5tit-8" value="" style="html=1;points=[];perimeter=orthogonalPerimeter;" parent="lKcURt1Z8BjD_Hxy5tit-4" vertex="1">
                    <mxGeometry x="45" y="80" width="10" height="40" as="geometry"/>
                </mxCell>
                <mxCell id="lKcURt1Z8BjD_Hxy5tit-5" value=":Class2" style="shape=umlLifeline;perimeter=lifelinePerimeter;whiteSpace=wrap;html=1;container=1;collapsible=0;recursiveResize=0;outlineConnect=0;fillColor=default;align=center;labelBackgroundColor=none;fontColor=default;strokeColor=default;" parent="cO7851tfKmzUKqTeVgMp-1" vertex="1">
                    <mxGeometry x="1240" y="160" width="100" height="270" as="geometry"/>
                </mxCell>
                <mxCell id="lKcURt1Z8BjD_Hxy5tit-9" value="" style="html=1;points=[];perimeter=orthogonalPerimeter;" parent="lKcURt1Z8BjD_Hxy5tit-5" vertex="1">
                    <mxGeometry x="45" y="140" width="10" height="40" as="geometry"/>
                </mxCell>
                <mxCell id="lKcURt1Z8BjD_Hxy5tit-6" value=":Class3" style="shape=umlLifeline;perimeter=lifelinePerimeter;whiteSpace=wrap;html=1;container=1;collapsible=0;recursiveResize=0;outlineConnect=0;fillColor=default;align=center;labelBackgroundColor=none;fontColor=default;strokeColor=default;" parent="cO7851tfKmzUKqTeVgMp-1" vertex="1">
                    <mxGeometry x="1360" y="160" width="100" height="270" as="geometry"/>
                </mxCell>
                <mxCell id="lKcURt1Z8BjD_Hxy5tit-10" value="" style="html=1;points=[];perimeter=orthogonalPerimeter;" parent="lKcURt1Z8BjD_Hxy5tit-6" vertex="1">
                    <mxGeometry x="45" y="200" width="10" height="40" as="geometry"/>
                </mxCell>
                <mxCell id="lKcURt1Z8BjD_Hxy5tit-11" value="" style="html=1;verticalAlign=bottom;endArrow=block;entryX=-0.019;entryY=-0.005;entryPerimeter=0;" parent="cO7851tfKmzUKqTeVgMp-1" source="lKcURt1Z8BjD_Hxy5tit-1" target="lKcURt1Z8BjD_Hxy5tit-7" edge="1">
                    <mxGeometry width="80" relative="1" as="geometry">
                        <mxPoint x="960" y="250" as="sourcePoint"/>
                        <mxPoint x="1040" y="250" as="targetPoint"/>
                    </mxGeometry>
                </mxCell>
                <mxCell id="lKcURt1Z8BjD_Hxy5tit-12" value="" style="html=1;verticalAlign=bottom;endArrow=block;entryX=-0.019;entryY=-0.024;entryPerimeter=0;" parent="cO7851tfKmzUKqTeVgMp-1" source="lKcURt1Z8BjD_Hxy5tit-7" target="lKcURt1Z8BjD_Hxy5tit-8" edge="1">
                    <mxGeometry width="80" relative="1" as="geometry">
                        <mxPoint x="1060" y="300" as="sourcePoint"/>
                        <mxPoint x="1140" y="300" as="targetPoint"/>
                    </mxGeometry>
                </mxCell>
                <mxCell id="lKcURt1Z8BjD_Hxy5tit-13" value="" style="html=1;verticalAlign=bottom;endArrow=block;entryX=-0.067;entryY=0.018;entryPerimeter=0;" parent="cO7851tfKmzUKqTeVgMp-1" source="lKcURt1Z8BjD_Hxy5tit-7" target="lKcURt1Z8BjD_Hxy5tit-9" edge="1">
                    <mxGeometry width="80" relative="1" as="geometry">
                        <mxPoint x="1210" y="330" as="sourcePoint"/>
                        <mxPoint x="1290" y="330" as="targetPoint"/>
                    </mxGeometry>
                </mxCell>
                <mxCell id="lKcURt1Z8BjD_Hxy5tit-14" value="" style="html=1;verticalAlign=bottom;endArrow=block;entryX=0.076;entryY=0.012;entryPerimeter=0;" parent="cO7851tfKmzUKqTeVgMp-1" source="lKcURt1Z8BjD_Hxy5tit-7" target="lKcURt1Z8BjD_Hxy5tit-10" edge="1">
                    <mxGeometry width="80" relative="1" as="geometry">
                        <mxPoint x="1090" y="480" as="sourcePoint"/>
                        <mxPoint x="1170" y="480" as="targetPoint"/>
                    </mxGeometry>
                </mxCell>
                <mxCell id="nND5YicUySMTMIcSlEg7-0" value="600 px MAX width" style="rounded=0;whiteSpace=wrap;html=1;sketch=0;fontSize=12;align=center;fontStyle=1" vertex="1" parent="cO7851tfKmzUKqTeVgMp-1">
                    <mxGeometry x="900" y="40" width="600" height="40" as="geometry"/>
                </mxCell>
                <mxCell id="nND5YicUySMTMIcSlEg7-1" value="600 px MAX width" style="rounded=0;whiteSpace=wrap;html=1;sketch=0;fontSize=12;align=center;fontStyle=1" vertex="1" parent="cO7851tfKmzUKqTeVgMp-1">
                    <mxGeometry x="150" y="40" width="600" height="40" as="geometry"/>
                </mxCell>
                <mxCell id="nND5YicUySMTMIcSlEg7-2" value="" style="endArrow=none;html=1;fontColor=default;" edge="1" parent="cO7851tfKmzUKqTeVgMp-1">
                    <mxGeometry width="50" height="50" relative="1" as="geometry">
                        <mxPoint x="-100" y="-80" as="sourcePoint"/>
                        <mxPoint x="-50" y="-130" as="targetPoint"/>
                    </mxGeometry>
                </mxCell>
                <mxCell id="nND5YicUySMTMIcSlEg7-3" value="" style="endArrow=none;html=1;fontColor=default;" edge="1" parent="cO7851tfKmzUKqTeVgMp-1">
                    <mxGeometry width="50" height="50" relative="1" as="geometry">
                        <mxPoint x="1690" y="1070" as="sourcePoint"/>
                        <mxPoint x="1740" y="1020" as="targetPoint"/>
                    </mxGeometry>
                </mxCell>
                <mxCell id="nND5YicUySMTMIcSlEg7-4" value="600 px MAX width" style="rounded=0;whiteSpace=wrap;html=1;sketch=0;fontSize=12;align=center;fontStyle=1" vertex="1" parent="cO7851tfKmzUKqTeVgMp-1">
                    <mxGeometry x="600" y="940" width="600" height="40" as="geometry"/>
                </mxCell>
                <mxCell id="nND5YicUySMTMIcSlEg7-5" value="Figure 11.18" style="text;html=1;align=center;verticalAlign=middle;resizable=0;points=[];autosize=1;fontSize=12;" vertex="1" parent="cO7851tfKmzUKqTeVgMp-1">
                    <mxGeometry x="785" y="905" width="90" height="30" as="geometry"/>
                </mxCell>
                <mxCell id="nND5YicUySMTMIcSlEg7-21" style="edgeStyle=elbowEdgeStyle;rounded=0;orthogonalLoop=1;jettySize=auto;elbow=vertical;html=1;fontSize=12;" edge="1" parent="cO7851tfKmzUKqTeVgMp-1" source="nND5YicUySMTMIcSlEg7-8" target="nND5YicUySMTMIcSlEg7-12">
                    <mxGeometry relative="1" as="geometry"/>
                </mxCell>
                <mxCell id="nND5YicUySMTMIcSlEg7-22" style="edgeStyle=elbowEdgeStyle;rounded=0;orthogonalLoop=1;jettySize=auto;elbow=vertical;html=1;fontSize=12;" edge="1" parent="cO7851tfKmzUKqTeVgMp-1" source="nND5YicUySMTMIcSlEg7-12" target="nND5YicUySMTMIcSlEg7-16">
                    <mxGeometry relative="1" as="geometry"/>
                </mxCell>
                <mxCell id="nND5YicUySMTMIcSlEg7-23" style="edgeStyle=elbowEdgeStyle;rounded=0;orthogonalLoop=1;jettySize=auto;elbow=vertical;html=1;fontSize=12;" edge="1" parent="cO7851tfKmzUKqTeVgMp-1" source="nND5YicUySMTMIcSlEg7-12" target="nND5YicUySMTMIcSlEg7-17">
                    <mxGeometry relative="1" as="geometry"/>
                </mxCell>
                <mxCell id="nND5YicUySMTMIcSlEg7-24" style="edgeStyle=elbowEdgeStyle;rounded=0;orthogonalLoop=1;jettySize=auto;elbow=vertical;html=1;fontSize=12;" edge="1" parent="cO7851tfKmzUKqTeVgMp-1" source="nND5YicUySMTMIcSlEg7-12" target="nND5YicUySMTMIcSlEg7-18">
                    <mxGeometry relative="1" as="geometry"/>
                </mxCell>
                <mxCell id="nND5YicUySMTMIcSlEg7-25" style="edgeStyle=elbowEdgeStyle;rounded=0;orthogonalLoop=1;jettySize=auto;elbow=vertical;html=1;fontSize=12;" edge="1" parent="cO7851tfKmzUKqTeVgMp-1" source="nND5YicUySMTMIcSlEg7-12" target="nND5YicUySMTMIcSlEg7-19">
                    <mxGeometry relative="1" as="geometry"/>
                </mxCell>
                <mxCell id="nND5YicUySMTMIcSlEg7-7" value="" style="rounded=1;whiteSpace=wrap;html=1;sketch=1;fontSize=12;align=center;strokeColor=#CCCCCC;fillColor=#F5F5F5;fillStyle=hachure;" vertex="1" parent="cO7851tfKmzUKqTeVgMp-1">
                    <mxGeometry x="600" y="650" width="580" height="60" as="geometry"/>
                </mxCell>
                <mxCell id="nND5YicUySMTMIcSlEg7-8" value="Program.cs" style="whiteSpace=wrap;html=1;sketch=0;fillColor=default;fontSize=12;align=center;" vertex="1" parent="cO7851tfKmzUKqTeVgMp-1">
                    <mxGeometry x="875" y="660" width="120" height="40" as="geometry"/>
                </mxCell>
                <mxCell id="nND5YicUySMTMIcSlEg7-9" value="&lt;span&gt;Consumer&lt;/span&gt;" style="text;html=1;align=left;verticalAlign=middle;resizable=0;points=[];autosize=1;fontSize=12;sketch=0;fontColor=default;labelBackgroundColor=default;" vertex="1" parent="cO7851tfKmzUKqTeVgMp-1">
                    <mxGeometry x="625" y="670" width="70" height="20" as="geometry"/>
                </mxCell>
                <mxCell id="nND5YicUySMTMIcSlEg7-11" value="" style="rounded=1;whiteSpace=wrap;html=1;sketch=1;fontSize=12;align=center;strokeColor=#CCCCCC;fillColor=#F5F5F5;fillStyle=hachure;" vertex="1" parent="cO7851tfKmzUKqTeVgMp-1">
                    <mxGeometry x="600" y="730" width="580" height="60" as="geometry"/>
                </mxCell>
                <mxCell id="nND5YicUySMTMIcSlEg7-12" value="transparentFacade.ExecuteOperationA()" style="whiteSpace=wrap;html=1;sketch=0;fillColor=default;fontSize=12;align=center;" vertex="1" parent="cO7851tfKmzUKqTeVgMp-1">
                    <mxGeometry x="810" y="740" width="250" height="40" as="geometry"/>
                </mxCell>
                <mxCell id="nND5YicUySMTMIcSlEg7-13" value="Façade" style="text;html=1;align=left;verticalAlign=middle;resizable=0;points=[];autosize=1;fontSize=12;fontColor=default;labelBackgroundColor=default;" vertex="1" parent="cO7851tfKmzUKqTeVgMp-1">
                    <mxGeometry x="630" y="750" width="60" height="20" as="geometry"/>
                </mxCell>
                <mxCell id="nND5YicUySMTMIcSlEg7-15" value="" style="rounded=1;whiteSpace=wrap;html=1;sketch=1;fontSize=12;align=center;strokeColor=#CCCCCC;fillStyle=hachure;fillColor=#F5F5F5;" vertex="1" parent="cO7851tfKmzUKqTeVgMp-1">
                    <mxGeometry x="600" y="810" width="580" height="70" as="geometry"/>
                </mxCell>
                <mxCell id="nND5YicUySMTMIcSlEg7-16" value="&lt;div&gt;_componentA&lt;/div&gt;&lt;div&gt;&lt;span&gt;&#9;&#9;&lt;/span&gt;.OperationA()&lt;/div&gt;" style="rounded=0;whiteSpace=wrap;html=1;sketch=0;fillColor=default;fontSize=12;align=center;" vertex="1" parent="cO7851tfKmzUKqTeVgMp-1">
                    <mxGeometry x="720" y="824.2857142857143" width="100" height="42.857142857142854" as="geometry"/>
                </mxCell>
                <mxCell id="nND5YicUySMTMIcSlEg7-17" value="&lt;div&gt;_componentA&lt;/div&gt;&lt;div&gt;&lt;span&gt;&#9;&#9;&lt;/span&gt;.OperationB()&lt;/div&gt;" style="rounded=0;whiteSpace=wrap;html=1;sketch=0;fillColor=default;fontSize=12;align=center;" vertex="1" parent="cO7851tfKmzUKqTeVgMp-1">
                    <mxGeometry x="830" y="824.2857142857143" width="100" height="42.857142857142854" as="geometry"/>
                </mxCell>
                <mxCell id="nND5YicUySMTMIcSlEg7-18" value="&lt;div&gt;_componentB&lt;/div&gt;&lt;div&gt;&lt;span&gt;&#9;&#9;&lt;/span&gt;.OperationD()&lt;/div&gt;" style="rounded=0;whiteSpace=wrap;html=1;sketch=0;fillColor=default;fontSize=12;align=center;" vertex="1" parent="cO7851tfKmzUKqTeVgMp-1">
                    <mxGeometry x="940" y="824.2857142857143" width="100" height="42.857142857142854" as="geometry"/>
                </mxCell>
                <mxCell id="nND5YicUySMTMIcSlEg7-19" value="&lt;div&gt;_componentC&lt;/div&gt;&lt;div&gt;&lt;span&gt;&#9;&#9;&lt;/span&gt;.OperationE()&lt;/div&gt;" style="rounded=0;whiteSpace=wrap;html=1;sketch=0;fillColor=default;fontSize=12;align=center;" vertex="1" parent="cO7851tfKmzUKqTeVgMp-1">
                    <mxGeometry x="1050" y="824.2857142857143" width="100" height="42.857142857142854" as="geometry"/>
                </mxCell>
                <mxCell id="nND5YicUySMTMIcSlEg7-20" value="Subsystem" style="text;html=1;align=left;verticalAlign=middle;resizable=0;points=[];autosize=1;fontSize=12;fontColor=default;labelBackgroundColor=default;" vertex="1" parent="cO7851tfKmzUKqTeVgMp-1">
                    <mxGeometry x="625" y="837.1428571428571" width="70" height="20" as="geometry"/>
                </mxCell>
                <mxCell id="cO7851tfKmzUKqTeVgMp-3" value="Classes" parent="cO7851tfKmzUKqTeVgMp-0"/>
                <mxCell id="cO7851tfKmzUKqTeVgMp-32" value="Class1" style="html=1;fillColor=default;align=center;strokeColor=default;fontColor=default;" parent="cO7851tfKmzUKqTeVgMp-3" vertex="1">
                    <mxGeometry x="480" y="160" width="110" height="50" as="geometry"/>
                </mxCell>
                <mxCell id="cO7851tfKmzUKqTeVgMp-33" value="Class2" style="html=1;fillColor=default;align=center;strokeColor=default;fontColor=default;" parent="cO7851tfKmzUKqTeVgMp-3" vertex="1">
                    <mxGeometry x="480" y="280" width="110" height="50" as="geometry"/>
                </mxCell>
                <mxCell id="cO7851tfKmzUKqTeVgMp-34" value="Class3" style="html=1;fillColor=default;align=center;strokeColor=default;fontColor=default;" parent="cO7851tfKmzUKqTeVgMp-3" vertex="1">
                    <mxGeometry x="480" y="390" width="110" height="50" as="geometry"/>
                </mxCell>
                <mxCell id="cO7851tfKmzUKqTeVgMp-35" value="«interface»&lt;br&gt;&lt;b&gt;Interface2&lt;/b&gt;" style="html=1;fillColor=default;align=center;strokeColor=default;fontColor=default;" parent="cO7851tfKmzUKqTeVgMp-3" vertex="1">
                    <mxGeometry x="630" y="280" width="110" height="50" as="geometry"/>
                </mxCell>
                <mxCell id="cO7851tfKmzUKqTeVgMp-36" value="" style="endArrow=block;endSize=12;endFill=0;html=1;" parent="cO7851tfKmzUKqTeVgMp-3" source="cO7851tfKmzUKqTeVgMp-34" target="cO7851tfKmzUKqTeVgMp-33" edge="1">
                    <mxGeometry width="160" relative="1" as="geometry">
                        <mxPoint x="960" y="450" as="sourcePoint"/>
                        <mxPoint x="960" y="389" as="targetPoint"/>
                    </mxGeometry>
                </mxCell>
                <mxCell id="cO7851tfKmzUKqTeVgMp-38" value="" style="endArrow=block;endSize=12;endFill=0;html=1;" parent="cO7851tfKmzUKqTeVgMp-3" source="cO7851tfKmzUKqTeVgMp-33" target="cO7851tfKmzUKqTeVgMp-32" edge="1">
                    <mxGeometry width="160" relative="1" as="geometry">
                        <mxPoint x="670" y="303" as="sourcePoint"/>
                        <mxPoint x="670" y="242" as="targetPoint"/>
                    </mxGeometry>
                </mxCell>
                <mxCell id="cO7851tfKmzUKqTeVgMp-39" value="" style="endArrow=block;dashed=1;endFill=0;endSize=12;html=1;" parent="cO7851tfKmzUKqTeVgMp-3" source="cO7851tfKmzUKqTeVgMp-32" target="cO7851tfKmzUKqTeVgMp-44" edge="1">
                    <mxGeometry width="160" relative="1" as="geometry">
                        <mxPoint x="1030" y="393" as="sourcePoint"/>
                        <mxPoint x="1030" y="340" as="targetPoint"/>
                    </mxGeometry>
                </mxCell>
                <mxCell id="cO7851tfKmzUKqTeVgMp-40" value="" style="endArrow=block;dashed=1;endFill=0;endSize=12;html=1;exitX=0.75;exitY=0;" parent="cO7851tfKmzUKqTeVgMp-3" source="cO7851tfKmzUKqTeVgMp-41" target="cO7851tfKmzUKqTeVgMp-35" edge="1">
                    <mxGeometry width="160" relative="1" as="geometry">
                        <mxPoint x="1040" y="403" as="sourcePoint"/>
                        <mxPoint x="1040" y="350" as="targetPoint"/>
                    </mxGeometry>
                </mxCell>
                <mxCell id="cO7851tfKmzUKqTeVgMp-41" value="Class4" style="html=1;fillColor=default;align=center;strokeColor=default;fontColor=default;" parent="cO7851tfKmzUKqTeVgMp-3" vertex="1">
                    <mxGeometry x="600" y="390" width="110" height="50" as="geometry"/>
                </mxCell>
                <mxCell id="cO7851tfKmzUKqTeVgMp-42" value="" style="endArrow=block;endSize=12;endFill=0;html=1;edgeStyle=orthogonalEdgeStyle;rounded=0;exitX=0.5;exitY=0;" parent="cO7851tfKmzUKqTeVgMp-3" source="cO7851tfKmzUKqTeVgMp-41" target="cO7851tfKmzUKqTeVgMp-33" edge="1">
                    <mxGeometry width="160" relative="1" as="geometry">
                        <mxPoint x="565" y="435" as="sourcePoint"/>
                        <mxPoint x="565" y="363" as="targetPoint"/>
                    </mxGeometry>
                </mxCell>
                <mxCell id="cO7851tfKmzUKqTeVgMp-44" value="«interface»&lt;br&gt;&lt;b&gt;Interface1&lt;/b&gt;" style="html=1;fillColor=default;align=center;strokeColor=default;fontColor=default;" parent="cO7851tfKmzUKqTeVgMp-3" vertex="1">
                    <mxGeometry x="630" y="160" width="110" height="50" as="geometry"/>
                </mxCell>
                <mxCell id="cO7851tfKmzUKqTeVgMp-53" style="edgeStyle=none;rounded=0;html=1;endArrow=open;endFill=0;endSize=12;jettySize=auto;orthogonalLoop=1;" parent="cO7851tfKmzUKqTeVgMp-3" source="cO7851tfKmzUKqTeVgMp-45" target="cO7851tfKmzUKqTeVgMp-52" edge="1">
                    <mxGeometry relative="1" as="geometry"/>
                </mxCell>
                <mxCell id="cO7851tfKmzUKqTeVgMp-45" value="Client" style="html=1;fillColor=default;align=center;" parent="cO7851tfKmzUKqTeVgMp-3" vertex="1">
                    <mxGeometry x="150" y="280" width="110" height="50" as="geometry"/>
                </mxCell>
                <mxCell id="cO7851tfKmzUKqTeVgMp-54" style="edgeStyle=elbowEdgeStyle;html=1;endArrow=open;endFill=0;endSize=12;jettySize=auto;orthogonalLoop=1;curved=1;" parent="cO7851tfKmzUKqTeVgMp-3" source="cO7851tfKmzUKqTeVgMp-52" target="cO7851tfKmzUKqTeVgMp-32" edge="1">
                    <mxGeometry relative="1" as="geometry"/>
                </mxCell>
                <mxCell id="cO7851tfKmzUKqTeVgMp-55" style="edgeStyle=elbowEdgeStyle;html=1;endArrow=open;endFill=0;endSize=12;jettySize=auto;orthogonalLoop=1;curved=1;" parent="cO7851tfKmzUKqTeVgMp-3" source="cO7851tfKmzUKqTeVgMp-52" target="cO7851tfKmzUKqTeVgMp-33" edge="1">
                    <mxGeometry relative="1" as="geometry"/>
                </mxCell>
                <mxCell id="cO7851tfKmzUKqTeVgMp-56" style="edgeStyle=elbowEdgeStyle;html=1;endArrow=open;endFill=0;endSize=12;jettySize=auto;orthogonalLoop=1;curved=1;" parent="cO7851tfKmzUKqTeVgMp-3" source="cO7851tfKmzUKqTeVgMp-52" target="cO7851tfKmzUKqTeVgMp-34" edge="1">
                    <mxGeometry relative="1" as="geometry"/>
                </mxCell>
                <mxCell id="cO7851tfKmzUKqTeVgMp-52" value="Façade" style="html=1;fillColor=default;align=center;" parent="cO7851tfKmzUKqTeVgMp-3" vertex="1">
                    <mxGeometry x="290" y="280" width="110" height="50" as="geometry"/>
                </mxCell>
            </root>
        </mxGraphModel>
    </diagram>
</mxfile>